<?xml version="1.0" encoding="UTF-8" standalone="no"?>
<!DOCTYPE svg  PUBLIC '-//W3C//DTD SVG 1.1//EN'  'http://www.w3.org/Graphics/SVG/1.1/DTD/svg11.dtd'>
<svg xmlns="http://www.w3.org/2000/svg">
<defs>
<font id="GothamBold-Regular" horiz-adv-x="623">
<font-face underline-position="-50" font-weight="400" descent="-200" panose-1="0 0 0 0 0 0 0 0 0 0" units-per-em="1000" unicode-range="U+0020-20B1" bbox="-229 -297 1092 1017" x-height="536" underline-thickness="50" font-family="GothamBold" ascent="800" cap-height="700"/>
<missing-glyph horiz-adv-x="1000"/>
<glyph glyph-name=".notdef" horiz-adv-x="1000"/>
<glyph glyph-name=".null" horiz-adv-x="0"/>
<glyph glyph-name="nonmarkingreturn" horiz-adv-x="1000"/>
<glyph glyph-name="space" horiz-adv-x="300" unicode=" "/>
<glyph glyph-name="exclam" horiz-adv-x="324" unicode="!" d="M81 0v160h162v-160h-162zM120 238l-47 442v20h178v-20l-47 -442h-84z"/>
<glyph glyph-name="quotedbl" horiz-adv-x="520" unicode='&quot;' d="M57 381l18 319h168v-5l-109 -314h-77zM293 381l18 319h168v-5l-109 -314h-77z"/>
<glyph glyph-name="numbersign" horiz-adv-x="700" unicode="#" d="M287 430l-26 -156h151l26 156h-151zM630 278v-128h-111l-25 -150h-132l25 150h-144l-26 -150h-132l25 150h-75v128h97l26 148h-88v128h110l25 146h132l-25 -146h145l25 146h132l-25 -146h76v-128h-98l-26 -148h89z"/>
<glyph glyph-name="dollar" horiz-adv-x="646" unicode="$" d="M216 511q0 -25 14 -41t55 -31v136q-69 -8 -69 -62v-2zM450 192q0 25 -16 42t-55 32v-140q71 11 71 64v2zM570 624l-67 -117q-63 43 -124 59v-152q115 -31 166 -81t51 -133v-2q0 -83 -58 -135t-154 -62v-99h-104v101q-133 17 -236 95l78 114q86 -65 163 -81v159 q-113 30 -164 78t-51 134v2q0 82 57 134t153 62v58h104v-61q98 -12 186 -73z"/>
<glyph glyph-name="percent" horiz-adv-x="860" unicode="%" d="M646 83q30 0 47 25t17 61v2q0 36 -18 62t-48 26t-47 -25t-17 -61v-2q0 -36 18 -62t48 -26zM644 -8q-74 0 -122 51t-47 126v2q0 75 48 127t123 52q74 0 122 -51t47 -126v-2q0 -75 -48 -127t-123 -52zM395 377l231 323h119l-280 -377l-231 -323h-119zM214 617 q-30 0 -47 -25t-17 -61v-2q0 -36 18 -62t48 -26t47 25t17 61v2q0 36 -18 62t-48 26zM214 350q-74 0 -122 51t-47 126v2q0 75 48 127t123 52q74 0 122 -51t47 -126v-2q0 -75 -48 -127t-123 -52z"/>
<glyph glyph-name="ampersand" horiz-adv-x="696" unicode="&amp;" d="M287 116q50 0 101 40l-134 136q-65 -34 -65 -92v-2q-1 -38 27 -60t71 -22zM303 432q49 18 71 40t22 53v2q0 29 -18 47t-48 18q-32 0 -50 -20t-18 -51v-2q0 -40 41 -87zM555 -14l-81 82q-95 -78 -205 -78q-103 0 -169 56t-66 146v2q0 130 136 192q-49 69 -49 140v2 q-1 76 57 130t155 54q89 0 143 -50t54 -126v-2q0 -126 -147 -183l93 -93q33 52 68 120l113 -62q-52 -94 -92 -148l103 -103z"/>
<glyph glyph-name="quotesingle" horiz-adv-x="286" unicode="&apos;" d="M57 381l18 319h170v-5l-109 -314h-79z"/>
<glyph glyph-name="parenleft" horiz-adv-x="445" unicode="(" d="M336 -141q-139 77 -208 181t-69 247t69 247t208 181l67 -101q-101 -70 -147 -146t-46 -181t46 -181t147 -146z"/>
<glyph glyph-name="parenright" horiz-adv-x="445" unicode=")" d="M109 -141l-67 101q102 70 148 146t45 181q1 105 -45 181t-148 146l67 101q139 -77 208 -181t69 -247t-69 -247t-208 -181z"/>
<glyph glyph-name="asterisk" horiz-adv-x="430" unicode="*" d="M174 372l16 120l-97 -74l-42 72l112 47l-112 47l42 72l97 -74l-16 120h82l-16 -120l97 74l42 -72l-112 -47l112 -47l-42 -72l-97 74l16 -120h-82z"/>
<glyph glyph-name="plus" horiz-adv-x="640" unicode="+" d="M249 103v180h-181v138h181v180h142v-180h181v-138h-181v-180h-142z"/>
<glyph glyph-name="comma" horiz-adv-x="286" unicode="," d="M39 -162l-13 63q99 10 99 87q0 6 -1 12h-62v160h162v-135q0 -97 -46 -141t-139 -46z"/>
<glyph glyph-name="hyphen" horiz-adv-x="408" unicode="-" d="M50 237v146h308v-146h-308z"/>
<glyph glyph-name="period" horiz-adv-x="286" unicode="." d="M62 0v160h162v-160h-162z"/>
<glyph glyph-name="slash" horiz-adv-x="530" unicode="/" d="M-28 -128l443 926h129l-443 -926h-129z"/>
<glyph glyph-name="zero" horiz-adv-x="730" unicode="0" d="M366 127q68 0 110 62t42 159v2q0 96 -43 160t-111 63q-68 0 -110 -62t-42 -159v-2q0 -97 42 -160t112 -63zM364 -12q-138 0 -224 102t-86 258v2q0 154 87 258t225 104t224 -103t86 -257v-2q0 -154 -87 -258t-225 -104z"/>
<glyph glyph-name="one" horiz-adv-x="422" unicode="1" d="M178 0v549l-122 -30l-32 126l201 60h105v-705h-152z"/>
<glyph glyph-name="two" d="M49 0v122l233 191q69 57 95 91t26 77t-26 67t-68 24q-39 0 -71 -22t-72 -72l-108 87q56 75 114 110t147 35q109 0 175 -59t66 -157v-2q0 -56 -22 -102t-57 -80t-105 -89l-114 -88h305v-133h-518z" unicode="2"/>
<glyph glyph-name="three" horiz-adv-x="621" unicode="3" d="M311 -12q-171 0 -273 121l106 101q75 -84 169 -84q43 0 71 23t28 62v2q0 43 -36 66t-101 23h-64l-24 98l167 168h-275v132h473v-116l-177 -169q188 -32 188 -196v-2q-1 -101 -69 -165t-183 -64z"/>
<glyph glyph-name="four" horiz-adv-x="689" unicode="4" d="M212 276h186v218zM398 0v151h-342l-25 109l384 445h130v-429h94v-125h-94v-151h-147z"/>
<glyph glyph-name="five" horiz-adv-x="630" unicode="5" d="M305 -12q-152 0 -262 105l93 111q84 -76 167 -76q55 0 86 26t31 71v2q0 43 -34 69t-90 26t-117 -26l-89 59l20 345h430v-135h-298l-8 -121q48 12 92 12q109 0 177 -56t68 -168v-2q-1 -110 -73 -176t-193 -66z"/>
<glyph glyph-name="six" horiz-adv-x="662" unicode="6" d="M333 120q56 0 88 28t32 75v2q0 45 -33 73t-89 29q-56 0 -88 -28t-32 -73v-2q0 -44 33 -74t89 -30zM339 -12q-127 0 -202 75q-83 83 -83 265v2q0 170 78 276t229 106q122 0 219 -77l-81 -119q-37 28 -69 42t-74 14q-37 0 -65 -16q-27 -16 -43 -42t-24 -52t-9 -52 q67 45 145 45q108 -1 177 -59t69 -164v-2q0 -106 -76 -174t-191 -68z"/>
<glyph glyph-name="seven" horiz-adv-x="619" unicode="7" d="M84 0l313 567h-329v133h504v-116l-314 -584h-174z"/>
<glyph glyph-name="eight" horiz-adv-x="630" unicode="8" d="M315 117q57 1 89 25t32 62v2q0 40 -34 63t-87 23t-87 -23t-34 -63v-2q0 -37 33 -62t88 -25zM315 414q45 0 73 24t27 61v2q1 34 -27 58t-73 24q-46 1 -73 -23t-27 -58v-2q-1 -38 27 -62t73 -24zM315 -10q-118 0 -194 56t-76 146v2q0 117 113 169q-89 54 -89 153v2 q1 82 69 137t177 55t177 -55t69 -137v-2q0 -99 -89 -153q57 -30 85 -68t28 -97v-2q1 -94 -75 -150t-195 -56z"/>
<glyph glyph-name="nine" horiz-adv-x="662" unicode="9" d="M331 367q56 0 88 29t32 75v2q0 47 -33 77t-90 30q-56 0 -88 -29t-31 -77v-2q0 -47 33 -76t89 -29zM306 128q38 0 66 16t43 42t23 50t10 51q-58 -48 -142 -48q-114 0 -182 60t-68 166v2q0 105 74 175t193 70q69 0 115 -18t87 -58q83 -83 83 -264v-2q0 -174 -80 -278 t-226 -104q-130 0 -230 83l81 117q75 -60 153 -60z"/>
<glyph glyph-name="colon" horiz-adv-x="296" unicode=":" d="M67 0v160h162v-160h-162zM67 376v160h162v-160h-162z"/>
<glyph glyph-name="semicolon" horiz-adv-x="296" unicode=";" d="M44 -162l-13 63q99 10 99 87q0 6 -1 12h-62v160h162v-135q-1 -97 -47 -141t-138 -46zM67 376v160h162v-160h-162z"/>
<glyph glyph-name="less" horiz-adv-x="640" unicode="&lt;" d="M552 71l-484 212v138l484 212v-141l-338 -139l338 -139v-143z"/>
<glyph glyph-name="equal" horiz-adv-x="640" unicode="=" d="M73 153v138h494v-138h-494zM73 413v138h494v-138h-494z"/>
<glyph glyph-name="greater" horiz-adv-x="640" unicode="&gt;" d="M88 71v141l338 139l-338 139v143l484 -212v-138z"/>
<glyph glyph-name="question" horiz-adv-x="544" unicode="?" d="M164 0v160h162v-160h-162zM197 238l-23 162l5 5q175 7 175 91v2q0 34 -24 52t-68 19q-81 0 -150 -69l-92 101q98 108 245 108q110 -1 176 -55t66 -152v-2q0 -161 -197 -201l-11 -61h-102z"/>
<glyph glyph-name="at" horiz-adv-x="980" unicode="@" d="M462 168q43 0 76 33q43 43 43 111q0 42 -26 68t-67 26q-44 0 -78 -34q-42 -42 -42 -107q0 -45 26 -71t68 -26zM499 -162q-190 0 -318 128t-128 308q-1 180 127 309t311 129q180 0 308 -120t128 -276q0 -120 -56 -186t-143 -65q-101 0 -153 60q-66 -60 -148 -60 q-79 0 -131 53t-52 140q0 104 68 178t156 73q88 0 138 -68l11 53l118 -19l-47 -269q-3 -15 -3 -31q-1 -27 19 -45t54 -18q55 0 91 54t36 150q-1 142 -115 249t-279 107q-168 0 -282 -116t-114 -282q1 -168 115 -282t289 -114q131 0 245 67l20 -32q-123 -75 -265 -75z"/>
<glyph glyph-name="A" horiz-adv-x="790" unicode="A" d="M300 293h186l-93 227zM24 0l300 705h142l300 -705h-161l-64 157h-296l-64 -157h-157z"/>
<glyph glyph-name="B" horiz-adv-x="722" unicode="B" d="M526 213q0 76 -114 76h-178v-154h183q109 0 109 76v2zM487 491v2q0 35 -26 53t-75 19h-152v-148h142q111 0 111 74zM84 0v700h325q121 0 183 -62q48 -48 48 -119v-2q0 -99 -92 -151q65 -25 98 -65t33 -107v-2q0 -94 -70 -143t-192 -49h-333z"/>
<glyph glyph-name="C" horiz-adv-x="738" unicode="C" d="M412 -12q-154 0 -256 104t-103 256v2q0 152 103 257t262 105q93 0 158 -28t118 -80l-98 -113q-87 79 -179 79q-87 0 -145 -64t-58 -154v-2q0 -92 58 -156t145 -64q56 0 97 20t87 62l98 -99q-59 -61 -125 -93t-162 -32z"/>
<glyph glyph-name="D" horiz-adv-x="782" unicode="D" d="M357 561h-119v-422h119q95 0 153 58t58 151v2q0 93 -58 152t-153 59zM84 0v700h273q163 0 267 -100t105 -248v-2q-1 -150 -105 -250t-267 -100h-273z"/>
<glyph glyph-name="E" horiz-adv-x="670" unicode="E" d="M84 0v700h528v-137h-375v-142h330v-137h-330v-147h380v-137h-533z"/>
<glyph glyph-name="F" horiz-adv-x="656" unicode="F" d="M84 0v700h533v-140h-379v-149h334v-140h-334v-271h-154z"/>
<glyph glyph-name="G" horiz-adv-x="784" unicode="G" d="M421 -12q-162 0 -265 102t-103 258v2q0 150 105 256t262 106q91 0 154 -24t121 -72l-97 -117q-44 37 -85 54t-98 17q-85 0 -143 -64t-58 -154v-2q0 -96 60 -159t152 -63q86 0 145 42v100h-155v133h304v-304q-131 -111 -299 -111z"/>
<glyph glyph-name="H" horiz-adv-x="760" unicode="H" d="M84 0v700h154v-277h284v277h154v-700h-154v281h-284v-281h-154z"/>
<glyph glyph-name="I" horiz-adv-x="336" unicode="I" d="M91 0v700h154v-700h-154z"/>
<glyph glyph-name="J" horiz-adv-x="564" unicode="J" d="M243 -10q-141 0 -229 105l97 108q64 -70 128 -70q94 0 94 116v451h158v-458q0 -121 -66 -187q-65 -65 -182 -65z"/>
<glyph glyph-name="K" horiz-adv-x="730" unicode="K" d="M84 0v700h154v-306l284 306h186l-285 -297l298 -403h-185l-217 298l-81 -84v-214h-154z"/>
<glyph glyph-name="L" horiz-adv-x="619" unicode="L" d="M84 0v700h154v-560h349v-140h-503z"/>
<glyph glyph-name="M" horiz-adv-x="868" unicode="M" d="M84 0v700h166l184 -296l184 296h166v-700h-153v457l-197 -299h-4l-195 296v-454h-151z"/>
<glyph glyph-name="N" horiz-adv-x="790" unicode="N" d="M84 0v700h142l328 -431v431h152v-700h-131l-339 445v-445h-152z"/>
<glyph glyph-name="O" horiz-adv-x="850" unicode="O" d="M426 130q92 0 151 63t59 155v2q0 92 -60 156t-152 64t-151 -63t-59 -155v-2q0 -92 60 -156t152 -64zM424 -12q-160 0 -266 104t-105 256v2q1 150 107 256t266 106t266 -104t105 -256v-2q-1 -150 -107 -256t-266 -106z"/>
<glyph glyph-name="P" horiz-adv-x="668" unicode="P" d="M238 347h122q56 0 89 30t33 76v2q0 51 -33 79t-92 27h-119v-214zM84 0v700h286q124 0 196 -66t72 -176v-2q0 -118 -80 -182t-203 -64h-117v-210h-154z"/>
<glyph glyph-name="Q" horiz-adv-x="850" unicode="Q" d="M426 130q53 0 92 19l-114 97l98 110l115 -104q19 44 19 96v2q0 92 -60 156t-152 64t-151 -63t-59 -155v-2q0 -92 60 -156t152 -64zM807 88l-98 -109l-77 69q-93 -60 -208 -60q-160 0 -266 104t-105 256v2q1 150 107 256t266 106t266 -104t105 -256v-2q0 -109 -62 -201z "/>
<glyph glyph-name="R" horiz-adv-x="723" unicode="R" d="M238 360h156q54 0 86 27t32 72v2q0 49 -32 75t-89 25h-153v-201zM84 0v700h320q133 0 204 -71q60 -60 60 -160v-2q0 -161 -150 -217l171 -250h-180l-150 224h-121v-224h-154z"/>
<glyph glyph-name="S" horiz-adv-x="640" unicode="S" d="M333 -10q-172 0 -297 112l91 109q103 -85 209 -85q47 0 74 18t27 48v2q0 30 -28 48t-113 41q-60 15 -97 29t-71 39q-34 23 -48 59q-16 36 -16 87v2q0 95 68 153t177 58q149 0 260 -89l-80 -116q-99 69 -182 69q-43 0 -67 -17t-23 -44v-2q0 -34 29 -51t122 -41 q114 -31 168 -77t54 -133v-2q0 -101 -70 -159t-187 -58z"/>
<glyph glyph-name="T" horiz-adv-x="648" unicode="T" d="M247 0v558h-213v142h580v-142h-213v-558h-154z"/>
<glyph glyph-name="U" horiz-adv-x="756" unicode="U" d="M376 -11q-143 -1 -223 79t-80 232v400h154v-396q-1 -84 39 -128t112 -45q72 0 112 43t39 125v401h154v-395q1 -156 -81 -236t-226 -80z"/>
<glyph glyph-name="V" horiz-adv-x="750" unicode="V" d="M307 -5l-283 705h170l183 -493l183 493h166l-283 -705h-136z"/>
<glyph glyph-name="W" horiz-adv-x="1122" unicode="W" d="M269 -5l-239 705h165l145 -474l157 476h132l157 -476l145 474h161l-239 -705h-134l-158 458l-158 -458h-134z"/>
<glyph glyph-name="X" horiz-adv-x="732" unicode="X" d="M516 700h175l-234 -342l244 -358h-180l-157 240l-158 -240h-175l244 356l-234 344h180l146 -227z"/>
<glyph glyph-name="Y" horiz-adv-x="716" unicode="Y" d="M281 0v276l-269 424h180l167 -281l170 281h175l-269 -421v-279h-154z"/>
<glyph glyph-name="Z" horiz-adv-x="708" unicode="Z" d="M63 0v117l385 448h-373v135h571v-117l-385 -448h385v-135h-583z"/>
<glyph glyph-name="bracketleft" horiz-adv-x="465" unicode="[" d="M83 -130v830h323v-119h-177v-592h177v-119h-323z"/>
<glyph glyph-name="backslash" horiz-adv-x="530" unicode="\" d="M429 -128l-443 926h129l443 -926h-129z"/>
<glyph glyph-name="bracketright" horiz-adv-x="465" unicode="]" d="M59 -130v119h177v592h-177v119h323v-830h-323z"/>
<glyph glyph-name="asciicircum" horiz-adv-x="500" unicode="^" d="M50 493l148 207h104l148 -207h-110l-91 117l-91 -117h-108z"/>
<glyph glyph-name="underscore" horiz-adv-x="600" unicode="_" d="M-2 -160v116h604v-116h-604z"/>
<glyph glyph-name="grave" horiz-adv-x="500" unicode="`" d="M240 595l-130 120l131 57l111 -177h-112z"/>
<glyph glyph-name="a" horiz-adv-x="592" unicode="a" d="M266 95q53 1 86 27t33 67v27q-43 20 -97 20q-49 0 -77 -19t-28 -55v-2q0 -30 23 -48t60 -17zM220 -10q-80 0 -132 44t-52 120v2q0 85 58 128t158 43q67 0 131 -22v9q0 98 -115 98q-69 0 -148 -29l-38 116q98 43 208 43q121 0 181 -60q58 -58 58 -171v-311h-147v58 q-61 -68 -162 -68z"/>
<glyph glyph-name="b" horiz-adv-x="675" unicode="b" d="M348 119q55 0 93 41t38 107v2q0 65 -38 107t-93 41q-54 1 -92 -41t-38 -107v-2q0 -65 38 -107t92 -41zM387 -10q-100 0 -167 80v-70h-152v730h152v-271q64 87 167 87q100 0 172 -74t72 -203v-2q1 -129 -71 -203t-173 -74z"/>
<glyph glyph-name="c" horiz-adv-x="571" unicode="c" d="M321 -12q-119 0 -199 80t-80 197v2q0 115 80 197t201 82q134 0 214 -90l-93 -100q-56 59 -122 59q-56 0 -93 -43t-37 -103v-2q0 -63 38 -105t98 -43q63 0 123 57l89 -90q-44 -48 -94 -73t-125 -25z"/>
<glyph glyph-name="d" horiz-adv-x="675" unicode="d" d="M327 119q55 -1 93 41t37 107v2q1 65 -37 107t-93 41q-55 0 -93 -41t-38 -107v-2q0 -65 38 -107t93 -41zM288 -10q-100 0 -172 74t-72 203v2q0 129 72 203t172 74t167 -80v264h152v-730h-152v77q-64 -87 -167 -87z"/>
<glyph glyph-name="e" horiz-adv-x="613" unicode="e" d="M191 310h229q-6 52 -36 83t-77 31t-77 -30t-39 -84zM322 -12q-122 0 -201 78t-79 199v2q0 117 75 198t190 81q127 0 194 -84t67 -207q0 -12 -2 -40h-373q11 -51 45 -78t86 -27q71 0 130 55l87 -77q-81 -100 -219 -100z"/>
<glyph glyph-name="f" horiz-adv-x="382" unicode="f" d="M94 0v406h-63v125h63v34q0 87 43 130q42 42 123 42q61 0 108 -15v-126q-36 13 -69 13q-55 0 -55 -58v-21h123v-124h-121v-406h-152z"/>
<glyph glyph-name="g" horiz-adv-x="675" unicode="g" d="M326 170q56 0 94 35t37 89v2q1 54 -37 89t-94 35t-93 -35t-37 -89v-2q0 -56 37 -90t93 -34zM308 -162q-131 0 -237 56l52 114q87 -49 181 -49q153 0 153 146v26q-37 -43 -77 -65t-98 -22q-98 0 -168 68t-70 182v2q0 114 70 182t168 68q100 0 173 -80v70h152v-415 q0 -143 -68 -211q-72 -72 -231 -72z"/>
<glyph glyph-name="h" d="M68 0v730h152v-270q67 86 157 86q86 0 134 -53t48 -146v-347h-152v299q0 53 -24 81t-68 28q-43 0 -69 -28t-26 -81v-299h-152z" unicode="h"/>
<glyph glyph-name="i" horiz-adv-x="302" unicode="i" d="M75 0v536h152v-536h-152zM71 595v135h160v-135h-160z"/>
<glyph glyph-name="j" horiz-adv-x="302" unicode="j" d="M55 -163q-35 0 -66 6v119q18 -3 32 -3q54 0 54 62v515h152v-527q0 -172 -172 -172zM71 595v135h160v-135h-160z"/>
<glyph glyph-name="k" horiz-adv-x="592" unicode="k" d="M68 0v730h152v-389l178 195h182l-204 -211l211 -325h-176l-137 220l-54 -57v-163h-152z"/>
<glyph glyph-name="l" horiz-adv-x="302" unicode="l" d="M75 0v730h152v-730h-152z"/>
<glyph glyph-name="m" horiz-adv-x="950" unicode="m" d="M68 0v536h152v-76q67 86 158 86q107 0 151 -85q73 85 176 85q85 0 133 -50t48 -147v-349h-152v299q0 109 -89 109q-43 0 -67 -28t-25 -81v-299h-152v299q0 109 -89 109q-44 0 -68 -28t-24 -81v-299h-152z"/>
<glyph glyph-name="n" d="M68 0v536h152v-76q67 86 157 86q86 0 134 -53t48 -146v-347h-152v299q0 53 -24 81t-68 28q-43 0 -69 -28t-26 -81v-299h-152z" unicode="n"/>
<glyph glyph-name="o" horiz-adv-x="664" unicode="o" d="M333 119q63 0 101 42t38 104v2q0 61 -40 105t-101 43q-63 0 -101 -42t-38 -104v-2q0 -61 40 -105t101 -43zM331 -12q-125 0 -207 80t-82 197v2q0 117 84 198t207 81q125 0 207 -80t82 -197v-2q0 -117 -84 -198t-207 -81z"/>
<glyph glyph-name="p" horiz-adv-x="675" unicode="p" d="M348 119q55 0 93 41t38 107v2q0 65 -38 107t-93 41q-54 1 -92 -41t-38 -107v-2q0 -65 38 -107t92 -41zM68 -160v696h152v-77q64 87 167 87q100 0 172 -74t72 -203v-2q1 -129 -71 -203t-173 -74q-100 0 -167 80v-230h-152z"/>
<glyph glyph-name="q" horiz-adv-x="675" unicode="q" d="M327 119q55 -1 93 41t37 107v2q1 65 -37 107t-93 41q-55 0 -93 -41t-38 -107v-2q0 -65 38 -107t93 -41zM455 -160v237q-64 -87 -167 -87q-100 0 -172 74t-72 203v2q0 129 72 203t172 74t167 -80v70h152v-696h-152z"/>
<glyph glyph-name="r" horiz-adv-x="418" unicode="r" d="M68 0v536h152v-108q50 118 162 118h9v-159h-8q-79 1 -121 -47t-42 -142v-198h-152z"/>
<glyph glyph-name="s" horiz-adv-x="502" unicode="s" d="M256 -10q-127 0 -230 81l65 100q88 -64 169 -64q64 0 64 40v2q0 5 -2 10t-5 9q-5 4 -9 8t-12 6l-12 6q-6 2 -16 6t-17 6t-19 6t-19 5q-34 11 -58 21q-23 10 -49 28t-40 46t-13 66v2q0 78 56 124t140 46q108 0 200 -62l-58 -105q-85 50 -145 50q-28 -1 -42 -11t-14 -26v-2 q0 -27 92 -58q11 -4 17 -6q35 -12 59 -22t50 -30q26 -18 40 -45t13 -62v-2q-1 -85 -57 -129t-148 -44z"/>
<glyph glyph-name="t" horiz-adv-x="415" unicode="t" d="M249 -9q-75 1 -115 37t-41 124v254h-64v130h64v137h152v-137h126v-130h-126v-229q0 -52 49 -52q40 0 75 19v-122q-52 -31 -120 -31z"/>
<glyph glyph-name="u" d="M246 -10q-86 0 -134 53t-48 146v347h152v-299q0 -53 24 -81t68 -28t70 28t25 81v299h152v-536h-152v76q-67 -86 -157 -86z" unicode="u"/>
<glyph glyph-name="v" horiz-adv-x="600" unicode="v" d="M231 -4l-211 540h161l120 -359l121 359h158l-211 -540h-138z"/>
<glyph glyph-name="w" horiz-adv-x="861" unicode="w" d="M189 -4l-165 540h154l86 -325l101 327h131l102 -328l88 326h151l-167 -540h-137l-103 329l-105 -329h-136z"/>
<glyph glyph-name="x" horiz-adv-x="584" unicode="x" d="M193 536l100 -157l101 157h159l-181 -262l189 -274h-163l-108 167l-108 -167h-159l188 272l-181 264h163z"/>
<glyph glyph-name="y" horiz-adv-x="600" unicode="y" d="M303 171l117 365h158l-206 -549q-31 -83 -70 -117t-106 -33q-72 0 -135 37l51 110q35 -21 65 -21q36 0 53 35l-210 538h161z"/>
<glyph glyph-name="z" horiz-adv-x="563" unicode="z" d="M50 0v107l277 306h-268v123h457v-107l-278 -306h278v-123h-466z"/>
<glyph glyph-name="braceleft" horiz-adv-x="490" unicode="{" d="M416 -141q-132 23 -183 70t-51 128q0 7 2 33t1 36q0 58 -25 80t-85 23h-26v116h26q60 1 85 23t25 80q1 10 -1 36t-2 33q0 81 51 128t183 70l27 -101q-76 -22 -99 -46t-23 -73q-1 -11 1 -37t2 -37q0 -100 -104 -134q104 -34 104 -134q0 -11 -2 -37t-1 -37q0 -49 23 -73 t99 -46z"/>
<glyph glyph-name="bar" horiz-adv-x="350" unicode="|" d="M115 -128v926h120v-926h-120z"/>
<glyph glyph-name="braceright" horiz-adv-x="490" unicode="}" d="M74 -141l-27 101q76 22 99 46t23 73q1 11 -1 37t-2 37q0 100 104 134q-104 34 -104 134q0 11 2 37t1 37q0 49 -23 73t-99 46l27 101q132 -23 183 -70t51 -128q0 -7 -2 -33t-1 -36q0 -58 25 -80t85 -23h26v-116h-26q-60 -1 -85 -23t-25 -80q-1 -10 1 -36t2 -33 q0 -81 -51 -128t-183 -70z"/>
<glyph glyph-name="asciitilde" horiz-adv-x="510" unicode="~" d="M337 234q-36 0 -91 22q-43 17 -59 17q-21 1 -33 -11t-24 -38l-81 25q19 69 47 103t77 35q36 0 91 -22q43 -17 59 -17q21 0 33 12t24 37l81 -25q-19 -70 -47 -104t-77 -34z"/>
<glyph glyph-name="uni00A0" horiz-adv-x="300" unicode=" "/>
<glyph glyph-name="exclamdown" horiz-adv-x="324" unicode="¡" d="M73 0v20l47 442h84l47 -442v-20h-178zM81 540v160h162v-160h-162z"/>
<glyph glyph-name="cent" horiz-adv-x="581" unicode="¢" d="M194 355q0 -91 64 -130l54 277q-50 -4 -84 -46t-34 -99v-2zM451 706l-18 -88q64 -22 109 -74l-90 -97q-24 23 -49 37l-54 -276q56 8 107 56l86 -87q-88 -98 -214 -101l-16 -82h-104l19 98q-80 30 -130 101t-50 160v2q0 117 80 198t200 81h6l14 72h104z"/>
<glyph glyph-name="sterling" horiz-adv-x="644" unicode="£" d="M60 0v101l76 25v141h-76v127h76v81q0 111 60 171q64 64 177 64q140 0 225 -115l-117 -94q-27 35 -51 51t-55 15q-35 0 -57 -22q-26 -26 -26 -74v-77h228v-127h-228v-134h304v-133h-536z"/>
<glyph glyph-name="yen" horiz-adv-x="686" unicode="¥" d="M85 262v108h143l-214 330h177l153 -259l156 259h172l-215 -330h144v-108h-184v-62h184v-108h-184v-92h-148v92h-184v108h184v62h-184z"/>
<glyph glyph-name="section" horiz-adv-x="632" unicode="§" d="M389 289q23 0 39 12t16 32v2q0 19 -24 32t-77 26q-72 18 -100 18q-23 0 -39 -12t-16 -32v-2q0 -19 24 -32t77 -26q72 -18 100 -18zM488 238q42 -33 42 -91v-2q0 -71 -54 -113t-151 -42q-146 0 -233 95l82 82q72 -66 147 -66q66 0 66 36v2q-1 17 -23 29t-87 26 q-120 26 -171 60t-51 89v2q0 84 89 117q-42 33 -42 91v2q0 71 54 113t151 42q146 0 233 -95l-82 -82q-72 66 -147 66q-66 0 -66 -36v-2q0 -17 21 -29t89 -26q121 -28 171 -60t51 -89v-2q0 -84 -89 -117z"/>
<glyph glyph-name="dieresis" horiz-adv-x="500" unicode="¨" d="M73 595v135h146v-135h-146zM281 595v135h146v-135h-146z"/>
<glyph glyph-name="copyright" horiz-adv-x="830" unicode="©" d="M419 156q-85 0 -141 57t-56 140v2q0 83 56 141t144 58q91 0 152 -59l-55 -64q-48 43 -97 43q-46 0 -78 -34t-32 -84v-2q0 -50 31 -84t79 -34q49 0 99 45l56 -56q-64 -69 -158 -69zM414 28q136 0 228 94t93 228v2q1 134 -91 227t-228 93t-228 -94t-93 -228v-2 q-1 -134 91 -227t228 -93zM414 -12q-151 0 -256 106t-105 254v2q0 150 106 256t257 106t256 -106t105 -254v-2q0 -150 -106 -256t-257 -106z"/>
<glyph glyph-name="ordfeminine" horiz-adv-x="390" unicode="ª" d="M178 457q30 1 48 15t18 37v15q-28 11 -54 11q-57 0 -57 -40v-2q1 -16 13 -26t32 -10zM49 277v66h278v-66h-278zM153 399q-45 0 -73 24t-28 66v2q0 46 32 70t87 24q36 0 72 -12v5q0 54 -64 54q-38 0 -81 -16l-21 63q53 24 114 24q67 0 100 -33q32 -32 32 -94v-171h-81v32 q-33 -38 -89 -38z"/>
<glyph glyph-name="guillemotleft" horiz-adv-x="645" unicode="«" d="M219 42l-178 222v8l178 222l106 -52l-120 -173l120 -173zM491 42l-178 222v8l178 222l106 -52l-120 -173l120 -173z"/>
<glyph glyph-name="registered" horiz-adv-x="368" unicode="®" d="M160 542h33q28 0 28 22t-28 22h-33v-44zM108 446v184h88q77 0 77 -62q0 -43 -38 -58l44 -64h-60l-37 55h-22v-55h-52zM184 379q66 0 110 46t44 110v1q0 64 -44 110t-110 45q-66 0 -110 -46t-44 -110v-1q0 -64 44 -110t110 -45zM184 360q-74 0 -124 51t-50 123v1 q0 71 51 123t123 52q74 0 124 -51t50 -123v-1q0 -71 -51 -123t-123 -52z"/>
<glyph glyph-name="macron" horiz-adv-x="500" unicode="¯" d="M70 600v105h360v-105h-360z"/>
<glyph glyph-name="degree" horiz-adv-x="480" unicode="°" d="M240 443q40 -1 66 27t26 66v2q0 38 -26 66t-66 27q-40 1 -66 -27t-26 -66v-2q0 -38 26 -66t66 -27zM240 368q-69 0 -121 50t-52 118v2q0 68 52 118t121 50t121 -50t52 -118v-2q0 -68 -52 -118t-121 -50z"/>
<glyph glyph-name="plusminus" horiz-adv-x="640" unicode="±" d="M567 0h-494v126h494v-126zM567 379l-180 1l1 -177h-136l1 177l-180 -1v132l180 -1l-1 177h136l-1 -177l180 1v-132z"/>
<glyph glyph-name="two.sup" horiz-adv-x="400" unicode="²" d="M52 420v75l133 108q39 30 53 49t14 41q0 21 -15 33t-38 13q-43 0 -85 -53l-62 51q32 43 66 63t86 20q63 0 101 -33t38 -86q-1 -40 -19 -69t-63 -65l-90 -71h174v-76h-293z"/>
<glyph glyph-name="three.sup" horiz-adv-x="400" unicode="³" d="M196 410q-87 0 -156 60l51 65q53 -46 106 -46q23 -1 41 13t18 35q0 48 -72 48h-47l-14 55l104 92h-160v78h270v-68l-111 -94q54 -4 86 -32t32 -76q0 -58 -40 -94t-108 -36z"/>
<glyph glyph-name="acute" horiz-adv-x="500" unicode="´" d="M148 595l111 177l131 -57l-130 -120h-112z"/>
<glyph glyph-name="paragraph" horiz-adv-x="590" unicode="¶" d="M352 0v230h-24q-131 0 -212 60t-81 173v2q-1 109 75 172t201 63h195v-700h-154z"/>
<glyph glyph-name="periodcentered" horiz-adv-x="286" unicode="·" d="M62 230v160h162v-160h-162z"/>
<glyph glyph-name="cedilla" horiz-adv-x="500" unicode="¸" d="M245 -173l-127 53l96 140h109z"/>
<glyph glyph-name="one.sup" horiz-adv-x="325" unicode="¹" d="M230 420h-86v303l-75 -28l-25 72l122 48h64v-395z"/>
<glyph glyph-name="ordmasculine" horiz-adv-x="390" unicode="º" d="M196 470q32 0 52 24t19 56v2q-1 33 -21 57t-52 24q-32 1 -52 -23t-19 -57v-2q1 -33 21 -57t52 -24zM51 277v66h288v-66h-288zM194 398q-66 0 -110 44t-43 108v2q1 64 45 108t110 45q66 0 110 -44t43 -108v-2q-1 -65 -45 -109t-110 -44z"/>
<glyph glyph-name="guillemotright" horiz-adv-x="645" unicode="»" d="M154 42l-106 52l120 173l-120 173l106 54l178 -222v-8zM426 42l-106 52l120 173l-120 173l106 54l178 -222v-8z"/>
<glyph glyph-name="onequarter" horiz-adv-x="825" unicode="¼" d="M660 148v152l-122 -152h122zM230 310h-86v303l-75 -28l-25 72l122 48h64v-395zM121 0l254 367l221 333h83l-254 -367l-221 -333h-83zM739 80v-82h-80v82h-188l-8 83l188 231h88v-245h52v-69h-52z"/>
<glyph glyph-name="onehalf" horiz-adv-x="825" unicode="½" d="M111 0l254 367l221 333h83l-254 -367l-221 -333h-83zM487 0v75l133 108q38 30 52 49t15 41q0 21 -15 33t-38 13q-43 0 -85 -53l-62 51q32 43 66 63t86 20q63 0 101 -33t38 -86q0 -40 -18 -69t-64 -65l-90 -71h174v-76h-293zM230 310h-86v303l-75 -28l-25 72l122 48h64 v-395z"/>
<glyph glyph-name="threequarters" horiz-adv-x="900" unicode="¾" d="M735 148v152l-122 -152h122zM191 0l254 367l221 333h83l-254 -367l-221 -333h-83zM196 300q-87 0 -156 60l51 65q53 -46 106 -46q23 -1 41 13t18 35q0 48 -72 48h-47l-14 55l104 92h-160v78h270v-68l-111 -94q54 -4 86 -32t32 -76q0 -58 -40 -94t-108 -36zM814 80v-82 h-80v82h-188l-8 83l188 231h88v-245h52v-69h-52z"/>
<glyph glyph-name="questiondown" horiz-adv-x="544" unicode="¿" d="M279 -9q-110 1 -176 55t-66 152v2q0 161 197 201l11 61h102l23 -162l-5 -5q-175 -7 -175 -91v-2q0 -34 24 -52t68 -19q81 0 150 69l92 -101q-98 -108 -245 -108zM218 540v160h162v-160h-162z"/>
<glyph glyph-name="Agrave" horiz-adv-x="790" unicode="À" d="M457 765h-116l-136 100l131 57zM300 293h186l-93 227zM24 0l300 705h142l300 -705h-161l-64 157h-296l-64 -157h-157z"/>
<glyph glyph-name="Aacute" horiz-adv-x="790" unicode="Á" d="M333 765l121 157l131 -57l-136 -100h-116zM300 293h186l-93 227zM24 0l300 705h142l300 -705h-161l-64 157h-296l-64 -157h-157z"/>
<glyph glyph-name="Acircumflex" horiz-adv-x="790" unicode="Â" d="M195 760l128 147h144l128 -147h-122l-79 56l-79 -56h-120zM300 293h186l-93 227zM24 0l300 705h142l300 -705h-161l-64 157h-296l-64 -157h-157z"/>
<glyph glyph-name="Atilde" horiz-adv-x="790" unicode="Ã" d="M485 765q-36 0 -97 23q-43 16 -59 16q-23 0 -35 -12t-23 -37l-81 25q20 70 48 104t77 34q36 0 97 -23q43 -16 59 -16q23 -1 35 11t23 38l81 -25q-20 -69 -48 -103t-77 -35zM300 293h186l-93 227zM24 0l300 705h142l300 -705h-161l-64 157h-296l-64 -157h-157z"/>
<glyph glyph-name="Adieresis" horiz-adv-x="790" unicode="Ä" d="M213 765v127h146v-127h-146zM431 765v127h146v-127h-146zM300 293h186l-93 227zM24 0l300 705h142l300 -705h-161l-64 157h-296l-64 -157h-157z"/>
<glyph glyph-name="Aring" horiz-adv-x="790" unicode="Å" d="M395 686q27 0 45 16t18 40t-18 40t-45 16t-45 -16t-18 -40t18 -40t45 -16zM300 293h186l-93 227zM24 0l282 664q-35 30 -35 78q1 48 37 79t87 31t87 -31t37 -79q0 -46 -35 -78l282 -664h-161l-64 157h-296l-64 -157h-157z"/>
<glyph glyph-name="AE" horiz-adv-x="1045" unicode="Æ" d="M321 293h163v274h-18zM9 0l377 700h601v-137h-350v-142h305v-137h-305v-147h355v-137h-508v157h-235l-83 -157h-157z"/>
<glyph glyph-name="Ccedilla" horiz-adv-x="738" unicode="Ç" d="M373 -173l-127 53l80 118q-121 27 -197 124t-76 226v2q0 152 103 257t262 105q93 0 158 -28t118 -80l-98 -113q-87 79 -179 79q-87 0 -145 -64t-58 -154v-2q0 -92 58 -156t145 -64q56 0 97 20t87 62l98 -99q-54 -58 -115 -89t-146 -35z"/>
<glyph glyph-name="Egrave" horiz-adv-x="670" unicode="È" d="M412 755h-116l-136 100l131 57zM84 0v700h528v-137h-375v-142h330v-137h-330v-147h380v-137h-533z"/>
<glyph glyph-name="Eacute" horiz-adv-x="670" unicode="É" d="M288 755l121 157l131 -57l-136 -100h-116zM84 0v700h528v-137h-375v-142h330v-137h-330v-147h380v-137h-533z"/>
<glyph glyph-name="Ecircumflex" horiz-adv-x="670" unicode="Ê" d="M150 755l128 147h144l128 -147h-122l-79 56l-79 -56h-120zM84 0v700h528v-137h-375v-142h330v-137h-330v-147h380v-137h-533z"/>
<glyph glyph-name="Edieresis" horiz-adv-x="670" unicode="Ë" d="M168 755v127h146v-127h-146zM386 755v127h146v-127h-146zM84 0v700h528v-137h-375v-142h330v-137h-330v-147h380v-137h-533z"/>
<glyph glyph-name="Igrave" horiz-adv-x="336" unicode="Ì" d="M230 755h-116l-136 100l131 57zM91 0v700h154v-700h-154z"/>
<glyph glyph-name="Iacute" horiz-adv-x="336" unicode="Í" d="M106 755l121 157l131 -57l-136 -100h-116zM91 0v700h154v-700h-154z"/>
<glyph glyph-name="Icircumflex" horiz-adv-x="336" unicode="Î" d="M-32 755l128 147h144l128 -147h-122l-79 56l-79 -56h-120zM91 0v700h154v-700h-154z"/>
<glyph glyph-name="Idieresis" horiz-adv-x="336" unicode="Ï" d="M-14 755v127h146v-127h-146zM204 755v127h146v-127h-146zM91 0v700h154v-700h-154z"/>
<glyph glyph-name="Eth" horiz-adv-x="812" unicode="Ð" d="M418 284h-150v-145h119q95 0 153 58t58 151v2q0 93 -58 152t-153 59h-119v-141h150v-136zM114 0v284h-75v136h75v280h273q163 0 267 -100t105 -248v-2q-1 -150 -105 -250t-267 -100h-273z"/>
<glyph glyph-name="Ntilde" horiz-adv-x="790" unicode="Ñ" d="M485 755q-36 0 -97 23q-43 16 -59 16q-23 0 -35 -12t-23 -37l-81 25q20 70 48 104t77 34q36 0 97 -23q43 -16 59 -16q23 -1 35 11t23 38l81 -25q-20 -69 -48 -103t-77 -35zM84 0v700h142l328 -431v431h152v-700h-131l-339 445v-445h-152z"/>
<glyph glyph-name="Ograve" horiz-adv-x="850" unicode="Ò" d="M487 765h-116l-136 100l131 57zM426 130q92 0 151 63t59 155v2q0 92 -60 156t-152 64t-151 -63t-59 -155v-2q0 -92 60 -156t152 -64zM424 -12q-160 0 -266 104t-105 256v2q1 150 107 256t266 106t266 -104t105 -256v-2q-1 -150 -107 -256t-266 -106z"/>
<glyph glyph-name="Oacute" horiz-adv-x="850" unicode="Ó" d="M363 765l121 157l131 -57l-136 -100h-116zM426 130q92 0 151 63t59 155v2q0 92 -60 156t-152 64t-151 -63t-59 -155v-2q0 -92 60 -156t152 -64zM424 -12q-160 0 -266 104t-105 256v2q1 150 107 256t266 106t266 -104t105 -256v-2q-1 -150 -107 -256t-266 -106z"/>
<glyph glyph-name="Ocircumflex" horiz-adv-x="850" unicode="Ô" d="M225 765l128 147h144l128 -147h-122l-79 56l-79 -56h-120zM426 130q92 0 151 63t59 155v2q0 92 -60 156t-152 64t-151 -63t-59 -155v-2q0 -92 60 -156t152 -64zM424 -12q-160 0 -266 104t-105 256v2q1 150 107 256t266 106t266 -104t105 -256v-2q-1 -150 -107 -256 t-266 -106z"/>
<glyph glyph-name="Otilde" horiz-adv-x="850" unicode="Õ" d="M515 765q-36 0 -97 23q-43 16 -59 16q-23 0 -35 -12t-23 -37l-81 25q20 70 48 104t77 34q36 0 97 -23q43 -16 59 -16q23 -1 35 11t23 38l81 -25q-20 -69 -48 -103t-77 -35zM426 130q92 0 151 63t59 155v2q0 92 -60 156t-152 64t-151 -63t-59 -155v-2q0 -92 60 -156 t152 -64zM424 -12q-160 0 -266 104t-105 256v2q1 150 107 256t266 106t266 -104t105 -256v-2q-1 -150 -107 -256t-266 -106z"/>
<glyph glyph-name="Odieresis" horiz-adv-x="850" unicode="Ö" d="M243 765v127h146v-127h-146zM461 765v127h146v-127h-146zM426 130q92 0 151 63t59 155v2q0 92 -60 156t-152 64t-151 -63t-59 -155v-2q0 -92 60 -156t152 -64zM424 -12q-160 0 -266 104t-105 256v2q1 150 107 256t266 106t266 -104t105 -256v-2q-1 -150 -107 -256 t-266 -106z"/>
<glyph glyph-name="multiply" horiz-adv-x="640" unicode="×" d="M474 103l-155 159l-155 -159l-93 93l159 155l-159 155l95 95l155 -159l155 159l93 -93l-159 -155l159 -155z"/>
<glyph glyph-name="Oslash" horiz-adv-x="850" unicode="Ø" d="M211 350q0 -69 35 -124l277 323q-46 24 -99 24q-92 -1 -152 -65t-61 -156v-2zM426 127q92 1 152 65t61 156v2q0 67 -35 124l-277 -323q46 -24 99 -24zM658 705h147l-98 -114q90 -99 90 -239v-2q-1 -150 -107 -256t-266 -106q-107 0 -193 50l-39 -43h-147l98 114 q-90 99 -90 239v2q1 150 107 256t266 106q104 0 193 -50z"/>
<glyph glyph-name="Ugrave" horiz-adv-x="756" unicode="Ù" d="M440 755h-116l-136 100l131 57zM376 -11q-143 -1 -223 79t-80 232v400h154v-396q-1 -84 39 -128t112 -45q72 0 112 43t39 125v401h154v-395q1 -156 -81 -236t-226 -80z"/>
<glyph glyph-name="Uacute" horiz-adv-x="756" unicode="Ú" d="M316 755l121 157l131 -57l-136 -100h-116zM376 -11q-143 -1 -223 79t-80 232v400h154v-396q-1 -84 39 -128t112 -45q72 0 112 43t39 125v401h154v-395q1 -156 -81 -236t-226 -80z"/>
<glyph glyph-name="Ucircumflex" horiz-adv-x="756" unicode="Û" d="M178 755l128 147h144l128 -147h-122l-79 56l-79 -56h-120zM376 -11q-143 -1 -223 79t-80 232v400h154v-396q-1 -84 39 -128t112 -45q72 0 112 43t39 125v401h154v-395q1 -156 -81 -236t-226 -80z"/>
<glyph glyph-name="Udieresis" horiz-adv-x="756" unicode="Ü" d="M196 755v127h146v-127h-146zM414 755v127h146v-127h-146zM376 -11q-143 -1 -223 79t-80 232v400h154v-396q-1 -84 39 -128t112 -45q72 0 112 43t39 125v401h154v-395q1 -156 -81 -236t-226 -80z"/>
<glyph glyph-name="Yacute" horiz-adv-x="716" unicode="Ý" d="M296 755l121 157l131 -57l-136 -100h-116zM281 0v276l-269 424h180l167 -281l170 281h175l-269 -421v-279h-154z"/>
<glyph glyph-name="Thorn" horiz-adv-x="673" unicode="Þ" d="M238 245h122q56 0 89 30t33 76v2q0 51 -33 79t-92 27h-119v-214zM84 0v700h154v-102h132q124 0 196 -66t72 -176v-2q0 -118 -80 -182t-203 -64h-117v-108h-154z"/>
<glyph glyph-name="germandbls" horiz-adv-x="620" unicode="ß" d="M299 -2v114q128 6 128 92v2q1 39 -35 64t-93 33v100q88 56 88 124v2q1 37 -21 59t-59 21q-39 1 -63 -27t-25 -73v-509h-151v503q0 110 66 172t180 62q104 -1 164 -55t59 -139v-2q0 -59 -24 -96t-67 -67q131 -57 131 -177v-2q0 -99 -75 -153q-69 -49 -182 -48h-21z"/>
<glyph glyph-name="agrave" horiz-adv-x="592" unicode="à" d="M246 595l-130 120l131 57l111 -177h-112zM266 95q53 1 86 27t33 67v27q-43 20 -97 20q-49 0 -77 -19t-28 -55v-2q0 -30 23 -48t60 -17zM220 -10q-80 0 -132 44t-52 120v2q0 85 58 128t158 43q67 0 131 -22v9q0 98 -115 98q-69 0 -148 -29l-38 116q98 43 208 43 q121 0 181 -60q58 -58 58 -171v-311h-147v58q-61 -68 -162 -68z"/>
<glyph glyph-name="aacute" horiz-adv-x="592" unicode="á" d="M238 595l111 177l131 -57l-130 -120h-112zM266 95q53 1 86 27t33 67v27q-43 20 -97 20q-49 0 -77 -19t-28 -55v-2q0 -30 23 -48t60 -17zM220 -10q-80 0 -132 44t-52 120v2q0 85 58 128t158 43q67 0 131 -22v9q0 98 -115 98q-69 0 -148 -29l-38 116q98 43 208 43 q121 0 181 -60q58 -58 58 -171v-311h-147v58q-61 -68 -162 -68z"/>
<glyph glyph-name="acircumflex" horiz-adv-x="592" unicode="â" d="M103 595l123 157h144l123 -157h-117l-79 66l-79 -66h-115zM266 95q53 1 86 27t33 67v27q-43 20 -97 20q-49 0 -77 -19t-28 -55v-2q0 -30 23 -48t60 -17zM220 -10q-80 0 -132 44t-52 120v2q0 85 58 128t158 43q67 0 131 -22v9q0 98 -115 98q-69 0 -148 -29l-38 116 q98 43 208 43q121 0 181 -60q58 -58 58 -171v-311h-147v58q-61 -68 -162 -68z"/>
<glyph glyph-name="atilde" horiz-adv-x="592" unicode="ã" d="M385 595q-36 0 -91 22q-43 17 -59 17q-21 0 -33 -12t-24 -37l-81 25q19 70 47 104t77 34q36 0 91 -22q43 -17 59 -17q21 -1 33 11t24 38l81 -25q-19 -69 -47 -103t-77 -35zM266 95q53 1 86 27t33 67v27q-43 20 -97 20q-49 0 -77 -19t-28 -55v-2q0 -30 23 -48t60 -17z M220 -10q-80 0 -132 44t-52 120v2q0 85 58 128t158 43q67 0 131 -22v9q0 98 -115 98q-69 0 -148 -29l-38 116q98 43 208 43q121 0 181 -60q58 -58 58 -171v-311h-147v58q-61 -68 -162 -68z"/>
<glyph glyph-name="adieresis" horiz-adv-x="592" unicode="ä" d="M121 595v135h146v-135h-146zM329 595v135h146v-135h-146zM266 95q53 1 86 27t33 67v27q-43 20 -97 20q-49 0 -77 -19t-28 -55v-2q0 -30 23 -48t60 -17zM220 -10q-80 0 -132 44t-52 120v2q0 85 58 128t158 43q67 0 131 -22v9q0 98 -115 98q-69 0 -148 -29l-38 116 q98 43 208 43q121 0 181 -60q58 -58 58 -171v-311h-147v58q-61 -68 -162 -68z"/>
<glyph glyph-name="aring" horiz-adv-x="592" unicode="å" d="M298 644q26 0 46 20t20 46t-20 46t-46 20t-46 -20t-20 -46t20 -46t46 -20zM298 593q-50 0 -86 34t-35 83q-1 49 35 83t86 34t86 -34t35 -83q1 -49 -35 -83t-86 -34zM266 95q53 1 86 27t33 67v27q-43 20 -97 20q-49 0 -77 -19t-28 -55v-2q0 -30 23 -48t60 -17zM220 -10 q-80 0 -132 44t-52 120v2q0 85 58 128t158 43q67 0 131 -22v9q0 98 -115 98q-69 0 -148 -29l-38 116q98 43 208 43q121 0 181 -60q58 -58 58 -171v-311h-147v58q-61 -68 -162 -68z"/>
<glyph glyph-name="ae" horiz-adv-x="951" unicode="æ" d="M266 97q71 0 137 51q-15 35 -19 69q-45 19 -96 19q-49 0 -77 -19t-28 -55v-2q0 -29 24 -46t59 -17zM529 310h229q-6 52 -36 83t-77 31t-77 -30t-39 -84zM238 -10q-90 0 -146 44t-56 120v2q0 85 58 128t158 43q67 0 131 -22v9q0 98 -115 98q-69 0 -148 -29l-38 116 q98 43 208 43q126 0 182 -68q70 72 177 72q83 0 143 -42t87 -106t27 -143q0 -12 -2 -40h-373q11 -51 45 -78t86 -27q71 0 130 55l87 -77q-81 -100 -219 -100q-125 0 -204 81q-107 -79 -218 -79z"/>
<glyph glyph-name="ccedilla" horiz-adv-x="571" unicode="ç" d="M281 -173l-127 53l82 120q-86 26 -140 98t-54 167v2q0 115 80 197t201 82q134 0 214 -90l-93 -100q-56 59 -122 59q-56 0 -93 -43t-37 -103v-2q0 -63 38 -105t98 -43q63 0 123 57l89 -90q-81 -90 -194 -97z"/>
<glyph glyph-name="egrave" horiz-adv-x="613" unicode="è" d="M253 595l-130 120l131 57l111 -177h-112zM191 310h229q-6 52 -36 83t-77 31t-77 -30t-39 -84zM322 -12q-122 0 -201 78t-79 199v2q0 117 75 198t190 81q127 0 194 -84t67 -207q0 -12 -2 -40h-373q11 -51 45 -78t86 -27q71 0 130 55l87 -77q-81 -100 -219 -100z"/>
<glyph glyph-name="eacute" horiz-adv-x="613" unicode="é" d="M245 595l111 177l131 -57l-130 -120h-112zM191 310h229q-6 52 -36 83t-77 31t-77 -30t-39 -84zM322 -12q-122 0 -201 78t-79 199v2q0 117 75 198t190 81q127 0 194 -84t67 -207q0 -12 -2 -40h-373q11 -51 45 -78t86 -27q71 0 130 55l87 -77q-81 -100 -219 -100z"/>
<glyph glyph-name="ecircumflex" horiz-adv-x="613" unicode="ê" d="M110 595l123 157h144l123 -157h-117l-79 66l-79 -66h-115zM191 310h229q-6 52 -36 83t-77 31t-77 -30t-39 -84zM322 -12q-122 0 -201 78t-79 199v2q0 117 75 198t190 81q127 0 194 -84t67 -207q0 -12 -2 -40h-373q11 -51 45 -78t86 -27q71 0 130 55l87 -77 q-81 -100 -219 -100z"/>
<glyph glyph-name="edieresis" horiz-adv-x="613" unicode="ë" d="M128 595v135h146v-135h-146zM336 595v135h146v-135h-146zM191 310h229q-6 52 -36 83t-77 31t-77 -30t-39 -84zM322 -12q-122 0 -201 78t-79 199v2q0 117 75 198t190 81q127 0 194 -84t67 -207q0 -12 -2 -40h-373q11 -51 45 -78t86 -27q71 0 130 55l87 -77 q-81 -100 -219 -100z"/>
<glyph glyph-name="igrave" horiz-adv-x="302" unicode="ì" d="M99 595l-130 120l131 57l111 -177h-112zM75 0v536h152v-536h-152z"/>
<glyph glyph-name="iacute" horiz-adv-x="302" unicode="í" d="M91 595l111 177l131 -57l-130 -120h-112zM75 0v536h152v-536h-152z"/>
<glyph glyph-name="icircumflex" horiz-adv-x="302" unicode="î" d="M-44 595l123 157h144l123 -157h-117l-79 66l-79 -66h-115zM75 0v536h152v-536h-152z"/>
<glyph glyph-name="idieresis" horiz-adv-x="302" unicode="ï" d="M-26 595v135h146v-135h-146zM182 595v135h146v-135h-146zM75 0v536h152v-536h-152z"/>
<glyph glyph-name="eth" horiz-adv-x="665" unicode="ð" d="M333 119q63 -1 101 41t38 103v2q0 61 -40 103t-101 43q-63 1 -101 -41t-38 -103v-2q0 -61 40 -103t101 -43zM538 653l-74 -19q157 -164 157 -341v-2q-1 -127 -79 -215t-211 -88q-125 0 -207 82t-82 203v2q0 109 69 184t169 75q62 0 123 -35q-33 48 -84 98l-124 -31 l-26 80l76 19q-36 29 -87 65h201l34 -28l120 30z"/>
<glyph glyph-name="ntilde" d="M400 595q-36 0 -91 22q-43 17 -59 17q-22 0 -34 -12t-23 -37l-81 25q19 70 47 104t77 34q36 0 91 -22q43 -17 59 -17q22 -1 34 11t23 38l81 -25q-19 -69 -47 -103t-77 -35zM68 0v536h152v-76q67 86 157 86q86 0 134 -53t48 -146v-347h-152v299q0 53 -24 81t-68 28 q-43 0 -69 -28t-26 -81v-299h-152z" unicode="ñ"/>
<glyph glyph-name="ograve" horiz-adv-x="664" unicode="ò" d="M280 595l-130 120l131 57l111 -177h-112zM333 119q63 0 101 42t38 104v2q0 61 -40 105t-101 43q-63 0 -101 -42t-38 -104v-2q0 -61 40 -105t101 -43zM331 -12q-125 0 -207 80t-82 197v2q0 117 84 198t207 81q125 0 207 -80t82 -197v-2q0 -117 -84 -198t-207 -81z"/>
<glyph glyph-name="oacute" horiz-adv-x="664" unicode="ó" d="M272 595l111 177l131 -57l-130 -120h-112zM333 119q63 0 101 42t38 104v2q0 61 -40 105t-101 43q-63 0 -101 -42t-38 -104v-2q0 -61 40 -105t101 -43zM331 -12q-125 0 -207 80t-82 197v2q0 117 84 198t207 81q125 0 207 -80t82 -197v-2q0 -117 -84 -198t-207 -81z"/>
<glyph glyph-name="ocircumflex" horiz-adv-x="664" unicode="ô" d="M137 595l123 157h144l123 -157h-117l-79 66l-79 -66h-115zM333 119q63 0 101 42t38 104v2q0 61 -40 105t-101 43q-63 0 -101 -42t-38 -104v-2q0 -61 40 -105t101 -43zM331 -12q-125 0 -207 80t-82 197v2q0 117 84 198t207 81q125 0 207 -80t82 -197v-2q0 -117 -84 -198 t-207 -81z"/>
<glyph glyph-name="otilde" horiz-adv-x="664" unicode="õ" d="M419 595q-36 0 -91 22q-43 17 -59 17q-21 0 -33 -12t-24 -37l-81 25q19 70 47 104t77 34q36 0 91 -22q43 -17 59 -17q21 -1 33 11t24 38l81 -25q-19 -69 -47 -103t-77 -35zM333 119q63 0 101 42t38 104v2q0 61 -40 105t-101 43q-63 0 -101 -42t-38 -104v-2q0 -61 40 -105 t101 -43zM331 -12q-125 0 -207 80t-82 197v2q0 117 84 198t207 81q125 0 207 -80t82 -197v-2q0 -117 -84 -198t-207 -81z"/>
<glyph glyph-name="odieresis" horiz-adv-x="664" unicode="ö" d="M155 595v135h146v-135h-146zM363 595v135h146v-135h-146zM333 119q63 0 101 42t38 104v2q0 61 -40 105t-101 43q-63 0 -101 -42t-38 -104v-2q0 -61 40 -105t101 -43zM331 -12q-125 0 -207 80t-82 197v2q0 117 84 198t207 81q125 0 207 -80t82 -197v-2q0 -117 -84 -198 t-207 -81z"/>
<glyph glyph-name="divide" horiz-adv-x="640" unicode="÷" d="M242 65v144h156v-144h-156zM572 288h-504v128h504v-128zM242 495v144h156v-144h-156z"/>
<glyph glyph-name="oslash" horiz-adv-x="664" unicode="ø" d="M333 115q65 -1 104 43t39 107v2q0 38 -17 72l-183 -213q27 -11 57 -11zM188 267q0 -37 16 -72l184 212q-29 12 -57 12q-65 1 -104 -43t-39 -107v-2zM504 541h133l-81 -93q66 -77 66 -179v-2q0 -117 -84 -198t-207 -81q-77 0 -144 35l-27 -28h-133l80 92q-65 76 -65 178v2 q0 117 84 198t207 81q78 0 143 -35z"/>
<glyph glyph-name="ugrave" d="M257 595l-130 120l131 57l111 -177h-112zM246 -10q-86 0 -134 53t-48 146v347h152v-299q0 -53 24 -81t68 -28t70 28t25 81v299h152v-536h-152v76q-67 -86 -157 -86z" unicode="ù"/>
<glyph glyph-name="uacute" d="M249 595l111 177l131 -57l-130 -120h-112zM246 -10q-86 0 -134 53t-48 146v347h152v-299q0 -53 24 -81t68 -28t70 28t25 81v299h152v-536h-152v76q-67 -86 -157 -86z" unicode="ú"/>
<glyph glyph-name="ucircumflex" d="M114 595l123 157h144l123 -157h-117l-79 66l-79 -66h-115zM246 -10q-86 0 -134 53t-48 146v347h152v-299q0 -53 24 -81t68 -28t70 28t25 81v299h152v-536h-152v76q-67 -86 -157 -86z" unicode="û"/>
<glyph glyph-name="udieresis" d="M132 595v135h146v-135h-146zM340 595v135h146v-135h-146zM246 -10q-86 0 -134 53t-48 146v347h152v-299q0 -53 24 -81t68 -28t70 28t25 81v299h152v-536h-152v76q-67 -86 -157 -86z" unicode="ü"/>
<glyph glyph-name="yacute" horiz-adv-x="600" unicode="ý" d="M239 595l111 177l131 -57l-130 -120h-112zM303 171l117 365h158l-206 -549q-31 -83 -70 -117t-106 -33q-72 0 -135 37l51 110q35 -21 65 -21q36 0 53 35l-210 538h161z"/>
<glyph glyph-name="thorn" horiz-adv-x="675" unicode="þ" d="M348 119q55 0 93 41t38 107v2q0 65 -38 107t-93 41q-54 1 -92 -41t-38 -107v-2q0 -65 38 -107t92 -41zM68 -160v890h152v-271q64 87 167 87q100 0 172 -74t72 -203v-2q1 -129 -71 -203t-173 -74q-100 0 -167 80v-230h-152z"/>
<glyph glyph-name="ydieresis" horiz-adv-x="600" unicode="ÿ" d="M122 595v135h146v-135h-146zM330 595v135h146v-135h-146zM303 171l117 365h158l-206 -549q-31 -83 -70 -117t-106 -33q-72 0 -135 37l51 110q35 -21 65 -21q36 0 53 35l-210 538h161z"/>
<glyph glyph-name="Amacron" horiz-adv-x="790" unicode="Ā" d="M205 770v107h380v-107h-380zM300 293h186l-93 227zM24 0l300 705h142l300 -705h-161l-64 157h-296l-64 -157h-157z"/>
<glyph glyph-name="amacron" horiz-adv-x="592" unicode="ā" d="M118 600v105h360v-105h-360zM266 95q53 1 86 27t33 67v27q-43 20 -97 20q-49 0 -77 -19t-28 -55v-2q0 -30 23 -48t60 -17zM220 -10q-80 0 -132 44t-52 120v2q0 85 58 128t158 43q67 0 131 -22v9q0 98 -115 98q-69 0 -148 -29l-38 116q98 43 208 43q121 0 181 -60 q58 -58 58 -171v-311h-147v58q-61 -68 -162 -68z"/>
<glyph glyph-name="Abreve" horiz-adv-x="790" unicode="Ă" d="M395 763q-81 0 -132 39t-58 110h104q19 -49 86 -49t86 49h104q-7 -71 -58 -110t-132 -39zM300 293h186l-93 227zM24 0l300 705h142l300 -705h-161l-64 157h-296l-64 -157h-157z"/>
<glyph glyph-name="abreve" horiz-adv-x="592" unicode="ă" d="M298 593q-80 0 -130 42t-58 117h102q20 -60 86 -60t86 60h102q-8 -75 -58 -117t-130 -42zM266 95q53 1 86 27t33 67v27q-43 20 -97 20q-49 0 -77 -19t-28 -55v-2q0 -30 23 -48t60 -17zM220 -10q-80 0 -132 44t-52 120v2q0 85 58 128t158 43q67 0 131 -22v9q0 98 -115 98 q-69 0 -148 -29l-38 116q98 43 208 43q121 0 181 -60q58 -58 58 -171v-311h-147v58q-61 -68 -162 -68z"/>
<glyph glyph-name="Aogonek" horiz-adv-x="790" unicode="Ą" d="M300 293h186l-93 227zM773 -97v-67q-24 -3 -45 -3q-62 1 -98 25t-36 62q0 37 33 80h-22l-64 157h-296l-64 -157h-157l300 705h142l300 -705h-38q-25 -29 -25 -56q0 -41 61 -41h9z"/>
<glyph glyph-name="aogonek" horiz-adv-x="592" unicode="ą" d="M266 95q53 1 86 27t33 67v27q-43 20 -97 20q-49 0 -77 -19t-28 -55v-2q0 -30 23 -48t60 -17zM532 -97v-67q-24 -3 -45 -3q-63 1 -99 25t-35 62q0 37 33 80h-4v58q-61 -68 -162 -68q-80 0 -132 44t-52 120v2q0 85 58 128t158 43q67 0 131 -22v9q0 98 -115 98 q-69 0 -148 -29l-38 116q98 43 208 43q121 0 181 -60q58 -58 58 -171v-311h-42q-25 -29 -25 -56q0 -41 61 -41h9z"/>
<glyph glyph-name="Cacute" horiz-adv-x="738" unicode="Ć" d="M343 765l121 157l131 -57l-136 -100h-116zM412 -12q-154 0 -256 104t-103 256v2q0 152 103 257t262 105q93 0 158 -28t118 -80l-98 -113q-87 79 -179 79q-87 0 -145 -64t-58 -154v-2q0 -92 58 -156t145 -64q56 0 97 20t87 62l98 -99q-59 -61 -125 -93t-162 -32z"/>
<glyph glyph-name="cacute" horiz-adv-x="571" unicode="ć" d="M257 595l111 177l131 -57l-130 -120h-112zM321 -12q-119 0 -199 80t-80 197v2q0 115 80 197t201 82q134 0 214 -90l-93 -100q-56 59 -122 59q-56 0 -93 -43t-37 -103v-2q0 -63 38 -105t98 -43q63 0 123 57l89 -90q-44 -48 -94 -73t-125 -25z"/>
<glyph glyph-name="Cdotaccent" horiz-adv-x="738" unicode="Ċ" d="M330 765v127h150v-127h-150zM412 -12q-154 0 -256 104t-103 256v2q0 152 103 257t262 105q93 0 158 -28t118 -80l-98 -113q-87 79 -179 79q-87 0 -145 -64t-58 -154v-2q0 -92 58 -156t145 -64q56 0 97 20t87 62l98 -99q-59 -61 -125 -93t-162 -32z"/>
<glyph glyph-name="cdotaccent" horiz-adv-x="571" unicode="ċ" d="M242 595v135h150v-135h-150zM321 -12q-119 0 -199 80t-80 197v2q0 115 80 197t201 82q134 0 214 -90l-93 -100q-56 59 -122 59q-56 0 -93 -43t-37 -103v-2q0 -63 38 -105t98 -43q63 0 123 57l89 -90q-44 -48 -94 -73t-125 -25z"/>
<glyph glyph-name="Ccaron" horiz-adv-x="738" unicode="Č" d="M605 912l-128 -147h-144l-128 147h122l79 -56l79 56h120zM412 -12q-154 0 -256 104t-103 256v2q0 152 103 257t262 105q93 0 158 -28t118 -80l-98 -113q-87 79 -179 79q-87 0 -145 -64t-58 -154v-2q0 -92 58 -156t145 -64q56 0 97 20t87 62l98 -99q-59 -61 -125 -93 t-162 -32z"/>
<glyph glyph-name="ccaron" horiz-adv-x="571" unicode="č" d="M512 752l-123 -157h-144l-123 157h117l79 -66l79 66h115zM321 -12q-119 0 -199 80t-80 197v2q0 115 80 197t201 82q134 0 214 -90l-93 -100q-56 59 -122 59q-56 0 -93 -43t-37 -103v-2q0 -63 38 -105t98 -43q63 0 123 57l89 -90q-44 -48 -94 -73t-125 -25z"/>
<glyph glyph-name="Dcaron" horiz-adv-x="782" unicode="Ď" d="M578 902l-128 -147h-144l-128 147h122l79 -56l79 56h120zM357 561h-119v-422h119q95 0 153 58t58 151v2q0 93 -58 152t-153 59zM84 0v700h273q163 0 267 -100t105 -248v-2q-1 -150 -105 -250t-267 -100h-273z"/>
<glyph glyph-name="dcaron" horiz-adv-x="675" unicode="ď" d="M657 592l10 208h109v-3l-59 -205h-60zM327 119q55 -1 93 41t37 107v2q1 65 -37 107t-93 41q-55 0 -93 -41t-38 -107v-2q0 -65 38 -107t93 -41zM288 -10q-100 0 -172 74t-72 203v2q0 129 72 203t172 74t167 -80v264h152v-730h-152v77q-64 -87 -167 -87z"/>
<glyph glyph-name="Dcroat" horiz-adv-x="812" unicode="Đ" d="M418 284h-150v-145h119q95 0 153 58t58 151v2q0 93 -58 152t-153 59h-119v-141h150v-136zM114 0v284h-75v136h75v280h273q163 0 267 -100t105 -248v-2q-1 -150 -105 -250t-267 -100h-273z"/>
<glyph glyph-name="dcroat" horiz-adv-x="675" unicode="đ" d="M327 119q55 -1 93 41t37 107v2q1 65 -37 107t-93 41q-55 0 -93 -41t-38 -107v-2q0 -65 38 -107t93 -41zM300 593v85h155v52h152v-52h68v-85h-68v-593h-152v77q-64 -87 -167 -87q-100 0 -172 74t-72 203v2q0 129 72 203t172 74t167 -80v127h-155z"/>
<glyph glyph-name="Emacron" horiz-adv-x="670" unicode="Ē" d="M160 760v107h380v-107h-380zM84 0v700h528v-137h-375v-142h330v-137h-330v-147h380v-137h-533z"/>
<glyph glyph-name="emacron" horiz-adv-x="613" unicode="ē" d="M125 600v105h360v-105h-360zM191 310h229q-6 52 -36 83t-77 31t-77 -30t-39 -84zM322 -12q-122 0 -201 78t-79 199v2q0 117 75 198t190 81q127 0 194 -84t67 -207q0 -12 -2 -40h-373q11 -51 45 -78t86 -27q71 0 130 55l87 -77q-81 -100 -219 -100z"/>
<glyph glyph-name="Ebreve" horiz-adv-x="670" unicode="Ĕ" d="M350 753q-81 0 -132 39t-58 110h104q19 -49 86 -49t86 49h104q-7 -71 -58 -110t-132 -39zM84 0v700h528v-137h-375v-142h330v-137h-330v-147h380v-137h-533z"/>
<glyph glyph-name="ebreve" horiz-adv-x="613" unicode="ĕ" d="M305 593q-81 0 -131 42t-57 117h102q20 -60 86 -60t86 60h102q-7 -75 -57 -117t-131 -42zM191 310h229q-6 52 -36 83t-77 31t-77 -30t-39 -84zM322 -12q-122 0 -201 78t-79 199v2q0 117 75 198t190 81q127 0 194 -84t67 -207q0 -12 -2 -40h-373q11 -51 45 -78t86 -27 q71 0 130 55l87 -77q-81 -100 -219 -100z"/>
<glyph glyph-name="Edotaccent" horiz-adv-x="670" unicode="Ė" d="M275 755v127h150v-127h-150zM84 0v700h528v-137h-375v-142h330v-137h-330v-147h380v-137h-533z"/>
<glyph glyph-name="edotaccent" horiz-adv-x="613" unicode="ė" d="M230 595v135h150v-135h-150zM191 310h229q-6 52 -36 83t-77 31t-77 -30t-39 -84zM322 -12q-122 0 -201 78t-79 199v2q0 117 75 198t190 81q127 0 194 -84t67 -207q0 -12 -2 -40h-373q11 -51 45 -78t86 -27q71 0 130 55l87 -77q-81 -100 -219 -100z"/>
<glyph glyph-name="Eogonek" horiz-adv-x="670" unicode="Ę" d="M84 0v700h528v-137h-375v-142h330v-137h-330v-147h380v-137h-45q-25 -29 -25 -56q0 -41 61 -41h9v-67q-24 -3 -45 -3q-62 1 -98 25t-36 62q0 37 33 80h-387z"/>
<glyph glyph-name="eogonek" horiz-adv-x="613" unicode="ę" d="M454 165l87 -77q-28 -32 -61 -62q-46 -43 -46 -77q0 -46 62 -46h8v-67q-24 -3 -46 -3q-63 -1 -98 23t-35 59q0 33 32 75q-18 -2 -35 -2q-122 0 -201 78t-79 199v2q0 117 75 198t190 81q127 0 194 -84t67 -207q0 -12 -2 -40h-373q11 -51 45 -78t86 -27q71 0 130 55z M191 310h229q-6 52 -36 83t-77 31t-77 -30t-39 -84z"/>
<glyph glyph-name="Ecaron" horiz-adv-x="670" unicode="Ě" d="M550 902l-128 -147h-144l-128 147h122l79 -56l79 56h120zM84 0v700h528v-137h-375v-142h330v-137h-330v-147h380v-137h-533z"/>
<glyph glyph-name="ecaron" horiz-adv-x="613" unicode="ě" d="M500 752l-123 -157h-144l-123 157h117l79 -66l79 66h115zM191 310h229q-6 52 -36 83t-77 31t-77 -30t-39 -84zM322 -12q-122 0 -201 78t-79 199v2q0 117 75 198t190 81q127 0 194 -84t67 -207q0 -12 -2 -40h-373q11 -51 45 -78t86 -27q71 0 130 55l87 -77 q-81 -100 -219 -100z"/>
<glyph glyph-name="Gbreve" horiz-adv-x="784" unicode="Ğ" d="M412 763q-81 0 -132 39t-58 110h104q19 -49 86 -49t86 49h104q-7 -71 -58 -110t-132 -39zM421 -12q-162 0 -265 102t-103 258v2q0 150 105 256t262 106q91 0 154 -24t121 -72l-97 -117q-44 37 -85 54t-98 17q-85 0 -143 -64t-58 -154v-2q0 -96 60 -159t152 -63 q86 0 145 42v100h-155v133h304v-304q-131 -111 -299 -111z"/>
<glyph glyph-name="gbreve" horiz-adv-x="675" unicode="ğ" d="M345 593q-81 0 -131 42t-57 117h102q20 -60 86 -60t86 60h102q-7 -75 -57 -117t-131 -42zM326 170q56 0 94 35t37 89v2q1 54 -37 89t-94 35t-93 -35t-37 -89v-2q0 -56 37 -90t93 -34zM308 -162q-131 0 -237 56l52 114q87 -49 181 -49q153 0 153 146v26q-37 -43 -77 -65 t-98 -22q-98 0 -168 68t-70 182v2q0 114 70 182t168 68q100 0 173 -80v70h152v-415q0 -143 -68 -211q-72 -72 -231 -72z"/>
<glyph glyph-name="Gdotaccent" horiz-adv-x="784" unicode="Ġ" d="M337 765v127h150v-127h-150zM421 -12q-162 0 -265 102t-103 258v2q0 150 105 256t262 106q91 0 154 -24t121 -72l-97 -117q-44 37 -85 54t-98 17q-85 0 -143 -64t-58 -154v-2q0 -96 60 -159t152 -63q86 0 145 42v100h-155v133h304v-304q-131 -111 -299 -111z"/>
<glyph glyph-name="gdotaccent" horiz-adv-x="675" unicode="ġ" d="M270 595v135h150v-135h-150zM326 170q56 0 94 35t37 89v2q1 54 -37 89t-94 35t-93 -35t-37 -89v-2q0 -56 37 -90t93 -34zM308 -162q-131 0 -237 56l52 114q87 -49 181 -49q153 0 153 146v26q-37 -43 -77 -65t-98 -22q-98 0 -168 68t-70 182v2q0 114 70 182t168 68 q100 0 173 -80v70h152v-415q0 -143 -68 -211q-72 -72 -231 -72z"/>
<glyph glyph-name="Gcommaaccent" horiz-adv-x="784" unicode="Ģ" d="M339 -297l-8 46q40 4 59 22q17 16 17 44v6h-64v115h138v-97q1 -70 -35 -102t-107 -34zM421 -12q-162 0 -265 102t-103 258v2q0 150 105 256t262 106q91 0 154 -24t121 -72l-97 -117q-44 37 -85 54t-98 17q-85 0 -143 -64t-58 -154v-2q0 -96 60 -159t152 -63q86 0 145 42 v100h-155v133h304v-304q-131 -111 -299 -111z"/>
<glyph glyph-name="gcommaaccent" horiz-adv-x="675" unicode="ģ" d="M415 828l8 -46q-40 -4 -59 -22q-17 -16 -17 -44v-6h64v-115h-138v97q-1 70 35 102t107 34zM326 170q56 0 94 35t37 89v2q1 54 -37 89t-94 35t-93 -35t-37 -89v-2q0 -56 37 -90t93 -34zM308 -162q-131 0 -237 56l52 114q87 -49 181 -49q153 0 153 146v26q-37 -43 -77 -65 t-98 -22q-98 0 -168 68t-70 182v2q0 114 70 182t168 68q100 0 173 -80v70h152v-415q0 -143 -68 -211q-72 -72 -231 -72z"/>
<glyph glyph-name="Hbar" horiz-adv-x="760" unicode="Ħ" d="M238 423h284v91h-284v-91zM14 512v105h70v83h154v-83h284v83h154v-83h70v-105h-70v-512h-154v281h-284v-281h-154v512h-70z"/>
<glyph glyph-name="hbar" d="M375 593h-155v-133q67 86 157 86q86 0 134 -53t48 -146v-347h-152v299q0 53 -24 81t-68 28q-43 0 -69 -28t-26 -81v-299h-152v593h-68v85h68v52h152v-52h155v-85z" unicode="ħ"/>
<glyph glyph-name="Imacron" horiz-adv-x="336" unicode="Ī" d="M-22 760v107h380v-107h-380zM91 0v700h154v-700h-154z"/>
<glyph glyph-name="imacron" horiz-adv-x="302" unicode="ī" d="M-29 600v105h360v-105h-360zM75 0v536h152v-536h-152z"/>
<glyph glyph-name="Ibreve" horiz-adv-x="336" unicode="Ĭ" d="M168 753q-81 0 -132 39t-58 110h104q19 -49 86 -49t86 49h104q-7 -71 -58 -110t-132 -39zM91 0v700h154v-700h-154z"/>
<glyph glyph-name="ibreve" horiz-adv-x="302" unicode="ĭ" d="M151 593q-81 0 -131 42t-57 117h102q20 -60 86 -60t86 60h102q-7 -75 -57 -117t-131 -42zM75 0v536h152v-536h-152z"/>
<glyph glyph-name="Iogonek" horiz-adv-x="336" unicode="Į" d="M91 0v700h154v-700h-29q-25 -29 -25 -56q0 -41 61 -41h9v-67q-24 -3 -45 -3q-62 1 -98 25t-36 62q0 37 33 80h-24z"/>
<glyph glyph-name="iogonek" horiz-adv-x="302" unicode="į" d="M71 595v135h160v-135h-160zM75 0v536h152v-536h-28q-25 -29 -25 -56q0 -41 61 -41h9v-67q-24 -3 -45 -3q-63 1 -99 25t-35 62q0 37 33 80h-23z"/>
<glyph glyph-name="Idotaccent" horiz-adv-x="336" unicode="İ" d="M93 755v127h150v-127h-150zM91 0v700h154v-700h-154z"/>
<glyph glyph-name="dotlessi" horiz-adv-x="302" unicode="ı" d="M75 0v536h152v-536h-152z"/>
<glyph glyph-name="Kcommaaccent" horiz-adv-x="730" unicode="Ķ" d="M293 -287l-8 46q40 4 59 22q17 16 17 44v6h-64v115h138v-97q1 -70 -35 -102t-107 -34zM84 0v700h154v-306l284 306h186l-285 -297l298 -403h-185l-217 298l-81 -84v-214h-154z"/>
<glyph glyph-name="kcommaaccent" horiz-adv-x="592" unicode="ķ" d="M234 -292l-8 46q40 4 59 22q17 16 17 44v6h-64v115h138v-97q0 -70 -36 -102t-106 -34zM68 0v730h152v-389l178 195h182l-204 -211l211 -325h-176l-137 220l-54 -57v-163h-152z"/>
<glyph glyph-name="Lacute" horiz-adv-x="619" unicode="Ĺ" d="M119 755l121 157l131 -57l-136 -100h-116zM84 0v700h154v-560h349v-140h-503z"/>
<glyph glyph-name="lacute" horiz-adv-x="302" unicode="ĺ" d="M93 770l121 157l131 -57l-136 -100h-116zM75 0v730h152v-730h-152z"/>
<glyph glyph-name="Lcommaaccent" horiz-adv-x="619" unicode="Ļ" d="M262 -292l-8 46q40 4 59 22q17 16 17 44v6h-64v115h138v-97q0 -70 -36 -102t-106 -34zM84 0v700h154v-560h349v-140h-503z"/>
<glyph glyph-name="lcommaaccent" horiz-adv-x="302" unicode="ļ" d="M78 -292l-8 46q40 4 59 22q17 16 17 44v6h-64v115h138v-97q0 -70 -36 -102t-106 -34zM75 0v730h152v-730h-152z"/>
<glyph glyph-name="Lcaron" horiz-adv-x="619" unicode="Ľ" d="M307 492l10 208h109v-3l-59 -205h-60zM84 0v700h154v-560h349v-140h-503z"/>
<glyph glyph-name="lcaron" horiz-adv-x="302" unicode="ľ" d="M277 592l10 208h109v-3l-59 -205h-60zM75 0v730h152v-730h-152z"/>
<glyph glyph-name="Ldot" horiz-adv-x="619" unicode="Ŀ" d="M84 0v700h154v-560h349v-140h-503zM411 315v135h144v-135h-144z"/>
<glyph glyph-name="ldot" horiz-adv-x="392" unicode="ŀ" d="M75 0v730h152v-730h-152zM287 316v125h120v-125h-120z"/>
<glyph glyph-name="Lslash" horiz-adv-x="649" unicode="Ł" d="M415 376l-149 -66v-170h351v-140h-503v243l-75 -33v144l75 33v313h152v-246l149 66v-144z"/>
<glyph glyph-name="lslash" horiz-adv-x="362" unicode="ł" d="M332 377l-76 -38v-339h-150v264l-76 -37v143l76 37v323h150v-248l76 38v-143z"/>
<glyph glyph-name="Nacute" horiz-adv-x="790" unicode="Ń" d="M333 755l121 157l131 -57l-136 -100h-116zM84 0v700h142l328 -431v431h152v-700h-131l-339 445v-445h-152z"/>
<glyph glyph-name="nacute" d="M253 595l111 177l131 -57l-130 -120h-112zM68 0v536h152v-76q67 86 157 86q86 0 134 -53t48 -146v-347h-152v299q0 53 -24 81t-68 28q-43 0 -69 -28t-26 -81v-299h-152z" unicode="ń"/>
<glyph glyph-name="Ncommaaccent" horiz-adv-x="790" unicode="Ņ" d="M322 -287l-8 46q40 4 59 22q17 16 17 44v6h-64v115h138v-97q0 -70 -36 -102t-106 -34zM84 0v700h142l328 -431v431h152v-700h-131l-339 445v-445h-152z"/>
<glyph glyph-name="ncommaaccent" d="M240 -292l-8 46q40 4 59 22q17 16 17 44v6h-64v115h138v-97q0 -70 -36 -102t-106 -34zM68 0v536h152v-76q67 86 157 86q86 0 134 -53t48 -146v-347h-152v299q0 53 -24 81t-68 28q-43 0 -69 -28t-26 -81v-299h-152z" unicode="ņ"/>
<glyph glyph-name="Ncaron" horiz-adv-x="790" unicode="Ň" d="M595 902l-128 -147h-144l-128 147h122l79 -56l79 56h120zM84 0v700h142l328 -431v431h152v-700h-131l-339 445v-445h-152z"/>
<glyph glyph-name="ncaron" d="M508 752l-123 -157h-144l-123 157h117l79 -66l79 66h115zM68 0v536h152v-76q67 86 157 86q86 0 134 -53t48 -146v-347h-152v299q0 53 -24 81t-68 28q-43 0 -69 -28t-26 -81v-299h-152z" unicode="ň"/>
<glyph glyph-name="Omacron" horiz-adv-x="850" unicode="Ō" d="M235 770v107h380v-107h-380zM426 130q92 0 151 63t59 155v2q0 92 -60 156t-152 64t-151 -63t-59 -155v-2q0 -92 60 -156t152 -64zM424 -12q-160 0 -266 104t-105 256v2q1 150 107 256t266 106t266 -104t105 -256v-2q-1 -150 -107 -256t-266 -106z"/>
<glyph glyph-name="omacron" horiz-adv-x="664" unicode="ō" d="M152 600v105h360v-105h-360zM333 119q63 0 101 42t38 104v2q0 61 -40 105t-101 43q-63 0 -101 -42t-38 -104v-2q0 -61 40 -105t101 -43zM331 -12q-125 0 -207 80t-82 197v2q0 117 84 198t207 81q125 0 207 -80t82 -197v-2q0 -117 -84 -198t-207 -81z"/>
<glyph glyph-name="Obreve" horiz-adv-x="850" unicode="Ŏ" d="M425 763q-81 0 -132 39t-58 110h104q19 -49 86 -49t86 49h104q-7 -71 -58 -110t-132 -39zM426 130q92 0 151 63t59 155v2q0 92 -60 156t-152 64t-151 -63t-59 -155v-2q0 -92 60 -156t152 -64zM424 -12q-160 0 -266 104t-105 256v2q1 150 107 256t266 106t266 -104 t105 -256v-2q-1 -150 -107 -256t-266 -106z"/>
<glyph glyph-name="obreve" horiz-adv-x="664" unicode="ŏ" d="M332 593q-80 0 -130 42t-58 117h102q20 -60 86 -60t86 60h102q-8 -75 -58 -117t-130 -42zM333 119q63 0 101 42t38 104v2q0 61 -40 105t-101 43q-63 0 -101 -42t-38 -104v-2q0 -61 40 -105t101 -43zM331 -12q-125 0 -207 80t-82 197v2q0 117 84 198t207 81q125 0 207 -80 t82 -197v-2q0 -117 -84 -198t-207 -81z"/>
<glyph glyph-name="Ohungarumlaut" horiz-adv-x="850" unicode="Ő" d="M452 765l121 157l126 -57l-136 -100h-111zM262 765l121 157l126 -57l-136 -100h-111zM426 130q92 0 151 63t59 155v2q0 92 -60 156t-152 64t-151 -63t-59 -155v-2q0 -92 60 -156t152 -64zM424 -12q-160 0 -266 104t-105 256v2q1 150 107 256t266 106t266 -104t105 -256 v-2q-1 -150 -107 -256t-266 -106z"/>
<glyph glyph-name="ohungarumlaut" horiz-adv-x="664" unicode="ő" d="M174 595l109 177l128 -57l-130 -120h-107zM359 595l111 177l128 -57l-132 -120h-107zM333 119q63 0 101 42t38 104v2q0 61 -40 105t-101 43q-63 0 -101 -42t-38 -104v-2q0 -61 40 -105t101 -43zM331 -12q-125 0 -207 80t-82 197v2q0 117 84 198t207 81q125 0 207 -80 t82 -197v-2q0 -117 -84 -198t-207 -81z"/>
<glyph glyph-name="OE" horiz-adv-x="1075" unicode="Œ" d="M425 139h89v422h-89q-95 0 -153 -58t-58 -151v-2q0 -93 58 -152t153 -59zM425 0q-163 0 -267 100t-105 248v2q1 150 105 250t267 100h592v-137h-350v-142h305v-137h-305v-147h355v-137h-597z"/>
<glyph glyph-name="oe" horiz-adv-x="1033" unicode="œ" d="M328 119q62 0 98 42t36 104v2q0 61 -38 105t-98 43q-62 0 -98 -43t-36 -103v-2q0 -61 38 -105t98 -43zM611 310h229q-6 52 -36 83t-77 31t-77 -30t-39 -84zM322 -12q-116 0 -198 81t-82 196v2q0 115 84 197t202 82q124 0 202 -89q76 89 197 89q127 0 194 -84t67 -207 q0 -12 -2 -40h-373q11 -51 45 -78t86 -27q71 0 130 55l87 -77q-81 -100 -219 -100q-133 0 -214 91q-80 -91 -206 -91z"/>
<glyph glyph-name="Racute" horiz-adv-x="723" unicode="Ŕ" d="M291 755l121 157l131 -57l-136 -100h-116zM238 360h156q54 0 86 27t32 72v2q0 49 -32 75t-89 25h-153v-201zM84 0v700h320q133 0 204 -71q60 -60 60 -160v-2q0 -161 -150 -217l171 -250h-180l-150 224h-121v-224h-154z"/>
<glyph glyph-name="racute" horiz-adv-x="418" unicode="ŕ" d="M169 595l111 177l131 -57l-130 -120h-112zM68 0v536h152v-108q50 118 162 118h9v-159h-8q-79 1 -121 -47t-42 -142v-198h-152z"/>
<glyph glyph-name="Rcommaaccent" horiz-adv-x="723" unicode="Ŗ" d="M280 -287l-8 46q40 4 59 22q17 16 17 44v6h-64v115h138v-97q0 -70 -36 -102t-106 -34zM238 360h156q54 0 86 27t32 72v2q0 49 -32 75t-89 25h-153v-201zM84 0v700h320q133 0 204 -71q60 -60 60 -160v-2q0 -161 -150 -217l171 -250h-180l-150 224h-121v-224h-154z"/>
<glyph glyph-name="rcommaaccent" horiz-adv-x="418" unicode="ŗ" d="M77 -292l-8 46q40 4 59 22q17 16 17 44v6h-64v115h138v-97q1 -70 -35 -102t-107 -34zM68 0v536h152v-108q50 118 162 118h9v-159h-8q-79 1 -121 -47t-42 -142v-198h-152z"/>
<glyph glyph-name="Rcaron" horiz-adv-x="723" unicode="Ř" d="M553 902l-128 -147h-144l-128 147h122l79 -56l79 56h120zM238 360h156q54 0 86 27t32 72v2q0 49 -32 75t-89 25h-153v-201zM84 0v700h320q133 0 204 -71q60 -60 60 -160v-2q0 -161 -150 -217l171 -250h-180l-150 224h-121v-224h-154z"/>
<glyph glyph-name="rcaron" horiz-adv-x="418" unicode="ř" d="M424 752l-123 -157h-144l-123 157h117l79 -66l79 66h115zM68 0v536h152v-108q50 118 162 118h9v-159h-8q-79 1 -121 -47t-42 -142v-198h-152z"/>
<glyph glyph-name="Sacute" horiz-adv-x="640" unicode="Ś" d="M262 765l121 157l131 -57l-136 -100h-116zM333 -10q-172 0 -297 112l91 109q103 -85 209 -85q47 0 74 18t27 48v2q0 30 -28 48t-113 41q-60 15 -97 29t-71 39q-34 23 -48 59q-16 36 -16 87v2q0 95 68 153t177 58q149 0 260 -89l-80 -116q-99 69 -182 69q-43 0 -67 -17 t-23 -44v-2q0 -34 29 -51t122 -41q114 -31 168 -77t54 -133v-2q0 -101 -70 -159t-187 -58z"/>
<glyph glyph-name="sacute" horiz-adv-x="502" unicode="ś" d="M194 595l111 177l131 -57l-130 -120h-112zM256 -10q-127 0 -230 81l65 100q88 -64 169 -64q64 0 64 40v2q0 5 -2 10t-5 9q-5 4 -9 8t-12 6l-12 6q-6 2 -16 6t-17 6t-19 6t-19 5q-34 11 -58 21q-23 10 -49 28t-40 46t-13 66v2q0 78 56 124t140 46q108 0 200 -62l-58 -105 q-85 50 -145 50q-28 -1 -42 -11t-14 -26v-2q0 -27 92 -58q11 -4 17 -6q35 -12 59 -22t50 -30q26 -18 40 -45t13 -62v-2q-1 -85 -57 -129t-148 -44z"/>
<glyph glyph-name="Scedilla" horiz-adv-x="640" unicode="Ş" d="M315 -173l-127 53l78 115q-134 19 -230 107l91 109q103 -85 209 -85q47 0 74 18t27 48v2q0 30 -28 48t-113 41q-60 15 -97 29t-71 39q-34 23 -48 59q-16 36 -16 87v2q0 95 68 153t177 58q149 0 260 -89l-80 -116q-99 69 -182 69q-43 0 -67 -17t-23 -44v-2q0 -34 29 -51 t122 -41q114 -31 168 -77t54 -133v-2q0 -91 -56 -147t-152 -67z"/>
<glyph glyph-name="scedilla" horiz-adv-x="502" unicode="ş" d="M236 -173l-127 53l80 117q-91 16 -163 74l65 100q88 -64 169 -64q64 0 64 40v2q0 5 -2 10t-5 9q-5 4 -9 8t-12 6l-12 6q-6 2 -16 6t-17 6t-19 6t-19 5q-34 11 -58 21q-23 10 -49 28t-40 46t-13 66v2q0 78 56 124t140 46q108 0 200 -62l-58 -105q-85 50 -145 50 q-28 -1 -42 -11t-14 -26v-2q0 -27 92 -58q11 -4 17 -6q35 -12 59 -22t50 -30q26 -18 40 -45t13 -62v-2q0 -74 -43 -117t-115 -53z"/>
<glyph glyph-name="Scaron" horiz-adv-x="640" unicode="Š" d="M524 912l-128 -147h-144l-128 147h122l79 -56l79 56h120zM333 -10q-172 0 -297 112l91 109q103 -85 209 -85q47 0 74 18t27 48v2q0 30 -28 48t-113 41q-60 15 -97 29t-71 39q-34 23 -48 59q-16 36 -16 87v2q0 95 68 153t177 58q149 0 260 -89l-80 -116q-99 69 -182 69 q-43 0 -67 -17t-23 -44v-2q0 -34 29 -51t122 -41q114 -31 168 -77t54 -133v-2q0 -101 -70 -159t-187 -58z"/>
<glyph glyph-name="scaron" horiz-adv-x="502" unicode="š" d="M449 752l-123 -157h-144l-123 157h117l79 -66l79 66h115zM256 -10q-127 0 -230 81l65 100q88 -64 169 -64q64 0 64 40v2q0 5 -2 10t-5 9q-5 4 -9 8t-12 6l-12 6q-6 2 -16 6t-17 6t-19 6t-19 5q-34 11 -58 21q-23 10 -49 28t-40 46t-13 66v2q0 78 56 124t140 46 q108 0 200 -62l-58 -105q-85 50 -145 50q-28 -1 -42 -11t-14 -26v-2q0 -27 92 -58q11 -4 17 -6q35 -12 59 -22t50 -30q26 -18 40 -45t13 -62v-2q-1 -85 -57 -129t-148 -44z"/>
<glyph glyph-name="Tcommaaccent" horiz-adv-x="648" unicode="Ţ" d="M251 -292l-8 46q40 4 59 22q17 16 17 44v6h-64v115h138v-97q1 -70 -35 -102t-107 -34zM247 0v558h-213v142h580v-142h-213v-558h-154z"/>
<glyph glyph-name="tcommaaccent" horiz-adv-x="415" unicode="ţ" d="M149 -292l-8 46q40 4 59 22q17 16 17 44v6h-64v115h138v-97q1 -70 -35 -102t-107 -34zM249 -9q-75 1 -115 37t-41 124v254h-64v130h64v137h152v-137h126v-130h-126v-229q0 -52 49 -52q40 0 75 19v-122q-52 -31 -120 -31z"/>
<glyph glyph-name="Tcaron" horiz-adv-x="648" unicode="Ť" d="M524 902l-128 -147h-144l-128 147h122l79 -56l79 56h120zM247 0v558h-213v142h580v-142h-213v-558h-154z"/>
<glyph glyph-name="tcaron" horiz-adv-x="415" unicode="ť" d="M309 592l10 208h109v-3l-59 -205h-60zM249 -9q-75 1 -115 37t-41 124v254h-64v130h64v137h152v-137h126v-130h-126v-229q0 -52 49 -52q40 0 75 19v-122q-52 -31 -120 -31z"/>
<glyph glyph-name="Umacron" horiz-adv-x="756" unicode="Ū" d="M188 760v107h380v-107h-380zM376 -11q-143 -1 -223 79t-80 232v400h154v-396q-1 -84 39 -128t112 -45q72 0 112 43t39 125v401h154v-395q1 -156 -81 -236t-226 -80z"/>
<glyph glyph-name="umacron" d="M129 600v105h360v-105h-360zM246 -10q-86 0 -134 53t-48 146v347h152v-299q0 -53 24 -81t68 -28t70 28t25 81v299h152v-536h-152v76q-67 -86 -157 -86z" unicode="ū"/>
<glyph glyph-name="Ubreve" horiz-adv-x="756" unicode="Ŭ" d="M378 743q-81 0 -132 39t-58 110h104q19 -49 86 -49t86 49h104q-7 -71 -58 -110t-132 -39zM376 -11q-143 -1 -223 79t-80 232v400h154v-396q-1 -84 39 -128t112 -45q72 0 112 43t39 125v401h154v-395q1 -156 -81 -236t-226 -80z"/>
<glyph glyph-name="ubreve" d="M309 593q-81 0 -131 42t-57 117h102q20 -60 86 -60t86 60h102q-7 -75 -57 -117t-131 -42zM246 -10q-86 0 -134 53t-48 146v347h152v-299q0 -53 24 -81t68 -28t70 28t25 81v299h152v-536h-152v76q-67 -86 -157 -86z" unicode="ŭ"/>
<glyph glyph-name="Uring" horiz-adv-x="756" unicode="Ů" d="M378 782q28 0 46 16t17 40q1 24 -17 40t-46 16t-46 -16t-17 -40q-1 -24 17 -40t46 -16zM378 728q-52 0 -88 31t-36 79t36 79t88 31t88 -31t36 -79t-36 -79t-88 -31zM376 -11q-143 -1 -223 79t-80 232v400h154v-396q-1 -84 39 -128t112 -45q72 0 112 43t39 125v401h154 v-395q1 -156 -81 -236t-226 -80z"/>
<glyph glyph-name="uring" d="M309 629q27 -1 47 19t19 47q1 27 -19 47t-47 19q-27 1 -47 -19t-19 -47q-1 -27 19 -47t47 -19zM309 578q-49 0 -85 34t-36 83t36 83t85 34t85 -34t36 -83t-36 -83t-85 -34zM246 -10q-86 0 -134 53t-48 146v347h152v-299q0 -53 24 -81t68 -28t70 28t25 81v299h152v-536 h-152v76q-67 -86 -157 -86z" unicode="ů"/>
<glyph glyph-name="Uhungarumlaut" horiz-adv-x="756" unicode="Ű" d="M405 755l121 157l126 -57l-136 -100h-111zM215 755l121 157l126 -57l-136 -100h-111zM376 -11q-143 -1 -223 79t-80 232v400h154v-396q-1 -84 39 -128t112 -45q72 0 112 43t39 125v401h154v-395q1 -156 -81 -236t-226 -80z"/>
<glyph glyph-name="uhungarumlaut" d="M151 595l109 177l128 -57l-130 -120h-107zM336 595l111 177l128 -57l-132 -120h-107zM246 -10q-86 0 -134 53t-48 146v347h152v-299q0 -53 24 -81t68 -28t70 28t25 81v299h152v-536h-152v76q-67 -86 -157 -86z" unicode="ű"/>
<glyph glyph-name="Uogonek" horiz-adv-x="756" unicode="Ų" d="M467 -97v-67q-24 -3 -45 -3q-62 1 -98 25t-36 62q0 33 28 73q-116 15 -180 93t-63 214v400h154v-396q-1 -84 39 -128t112 -45q72 0 112 43t39 125v401h154v-395q0 -145 -71 -225t-198 -89q-17 -24 -17 -47q0 -41 61 -41h9z"/>
<glyph glyph-name="uogonek" d="M565 -97v-67q-24 -3 -45 -3q-62 1 -98 25t-36 62q0 37 33 80h-16v76q-67 -86 -157 -86q-86 0 -134 53t-48 146v347h152v-299q0 -53 24 -81t68 -28t70 28t25 81v299h152v-536h-35q-25 -29 -25 -56q0 -41 61 -41h9z" unicode="ų"/>
<glyph glyph-name="Wcircumflex" horiz-adv-x="1122" unicode="Ŵ" d="M361 755l128 147h144l128 -147h-122l-79 56l-79 -56h-120zM269 -5l-239 705h165l145 -474l157 476h132l157 -476l145 474h161l-239 -705h-134l-158 458l-158 -458h-134z"/>
<glyph glyph-name="wcircumflex" horiz-adv-x="861" unicode="ŵ" d="M235 595l123 157h144l123 -157h-117l-79 66l-79 -66h-115zM189 -4l-165 540h154l86 -325l101 327h131l102 -328l88 326h151l-167 -540h-137l-103 329l-105 -329h-136z"/>
<glyph glyph-name="Ycircumflex" horiz-adv-x="716" unicode="Ŷ" d="M158 755l128 147h144l128 -147h-122l-79 56l-79 -56h-120zM281 0v276l-269 424h180l167 -281l170 281h175l-269 -421v-279h-154z"/>
<glyph glyph-name="ycircumflex" horiz-adv-x="600" unicode="ŷ" d="M104 595l123 157h144l123 -157h-117l-79 66l-79 -66h-115zM303 171l117 365h158l-206 -549q-31 -83 -70 -117t-106 -33q-72 0 -135 37l51 110q35 -21 65 -21q36 0 53 35l-210 538h161z"/>
<glyph glyph-name="Ydieresis" horiz-adv-x="716" unicode="Ÿ" d="M176 755v127h146v-127h-146zM394 755v127h146v-127h-146zM281 0v276l-269 424h180l167 -281l170 281h175l-269 -421v-279h-154z"/>
<glyph glyph-name="Zacute" horiz-adv-x="708" unicode="Ź" d="M298 755l121 157l131 -57l-136 -100h-116zM63 0v117l385 448h-373v135h571v-117l-385 -448h385v-135h-583z"/>
<glyph glyph-name="zacute" horiz-adv-x="563" unicode="ź" d="M223 595l111 177l131 -57l-130 -120h-112zM50 0v107l277 306h-268v123h457v-107l-278 -306h278v-123h-466z"/>
<glyph glyph-name="Zdotaccent" horiz-adv-x="708" unicode="Ż" d="M285 755v127h150v-127h-150zM63 0v117l385 448h-373v135h571v-117l-385 -448h385v-135h-583z"/>
<glyph glyph-name="zdotaccent" horiz-adv-x="563" unicode="ż" d="M208 595v135h150v-135h-150zM50 0v107l277 306h-268v123h457v-107l-278 -306h278v-123h-466z"/>
<glyph glyph-name="Zcaron" horiz-adv-x="708" unicode="Ž" d="M560 902l-128 -147h-144l-128 147h122l79 -56l79 56h120zM63 0v117l385 448h-373v135h571v-117l-385 -448h385v-135h-583z"/>
<glyph glyph-name="zcaron" horiz-adv-x="563" unicode="ž" d="M478 752l-123 -157h-144l-123 157h117l79 -66l79 66h115zM50 0v107l277 306h-268v123h457v-107l-278 -306h278v-123h-466z"/>
<glyph glyph-name="florin" horiz-adv-x="536" unicode="ƒ" d="M100 -5q-36 0 -59 5v123q20 -3 37 -3q32 0 48 14t22 47l28 163h-67v125h89l14 74q15 81 59 121t130 41q61 0 99 -12v-126q-40 10 -68 10q-63 0 -75 -68l-7 -40h115v-125h-137l-33 -187q-16 -87 -62 -125t-133 -37z"/>
<glyph glyph-name="Aringacute" horiz-adv-x="790" unicode="Ǻ" d="M395 686q27 0 45 16t18 40t-18 40t-45 16t-45 -16t-18 -40t18 -40t45 -16zM327 880l127 137l131 -57l-142 -80h-116zM300 293h186l-93 227zM24 0l282 664q-35 30 -35 78q1 48 37 79t87 31t87 -31t37 -79q0 -46 -35 -78l282 -664h-161l-64 157h-296l-64 -157h-157z"/>
<glyph glyph-name="aringacute" horiz-adv-x="592" unicode="ǻ" d="M298 644q26 0 46 20t20 46t-20 46t-46 20t-46 -20t-20 -46t20 -46t46 -20zM298 593q-50 0 -86 34t-35 83q-1 49 35 83t86 34t86 -34t35 -83q1 -49 -35 -83t-86 -34zM266 95q53 1 86 27t33 67v27q-43 20 -97 20q-49 0 -77 -19t-28 -55v-2q0 -30 23 -48t60 -17zM220 -10 q-80 0 -132 44t-52 120v2q0 85 58 128t158 43q67 0 131 -22v9q0 98 -115 98q-69 0 -148 -29l-38 116q98 43 208 43q121 0 181 -60q58 -58 58 -171v-311h-147v58q-61 -68 -162 -68zM237 861l119 147l129 -57l-136 -90h-112z"/>
<glyph glyph-name="AEacute" horiz-adv-x="1045" unicode="Ǽ" d="M554 755l121 157l131 -57l-136 -100h-116zM321 293h163v274h-18zM9 0l377 700h601v-137h-350v-142h305v-137h-305v-147h355v-137h-508v157h-235l-83 -157h-157z"/>
<glyph glyph-name="aeacute" horiz-adv-x="951" unicode="ǽ" d="M411 595l111 177l131 -57l-130 -120h-112zM266 97q71 0 137 51q-15 35 -19 69q-45 19 -96 19q-49 0 -77 -19t-28 -55v-2q0 -29 24 -46t59 -17zM529 310h229q-6 52 -36 83t-77 31t-77 -30t-39 -84zM238 -10q-90 0 -146 44t-56 120v2q0 85 58 128t158 43q67 0 131 -22v9 q0 98 -115 98q-69 0 -148 -29l-38 116q98 43 208 43q126 0 182 -68q70 72 177 72q83 0 143 -42t87 -106t27 -143q0 -12 -2 -40h-373q11 -51 45 -78t86 -27q71 0 130 55l87 -77q-81 -100 -219 -100q-125 0 -204 81q-107 -79 -218 -79z"/>
<glyph glyph-name="Oslashacute" horiz-adv-x="850" unicode="Ǿ" d="M363 765l121 157l131 -57l-136 -100h-116zM211 350q0 -69 35 -124l277 323q-46 24 -99 24q-92 -1 -152 -65t-61 -156v-2zM426 127q92 1 152 65t61 156v2q0 67 -35 124l-277 -323q46 -24 99 -24zM658 705h147l-98 -114q90 -99 90 -239v-2q-1 -150 -107 -256t-266 -106 q-107 0 -193 50l-39 -43h-147l98 114q-90 99 -90 239v2q1 150 107 256t266 106q104 0 193 -50z"/>
<glyph glyph-name="oslashacute" horiz-adv-x="664" unicode="ǿ" d="M333 115q65 -1 104 43t39 107v2q0 38 -17 72l-183 -213q27 -11 57 -11zM188 267q0 -37 16 -72l184 212q-29 12 -57 12q-65 1 -104 -43t-39 -107v-2zM272 595l111 177l131 -57l-130 -120h-112zM504 541h133l-81 -93q66 -77 66 -179v-2q0 -117 -84 -198t-207 -81 q-77 0 -144 35l-27 -28h-133l80 92q-65 76 -65 178v2q0 117 84 198t207 81q78 0 143 -35z"/>
<glyph glyph-name="Scommaaccent" horiz-adv-x="640" unicode="Ș" d="M251 -297l-8 46q40 4 59 22q17 16 17 44v6h-64v115h138v-97q1 -70 -35 -102t-107 -34zM333 -10q-172 0 -297 112l91 109q103 -85 209 -85q47 0 74 18t27 48v2q0 30 -28 48t-113 41q-60 15 -97 29t-71 39q-34 23 -48 59q-16 36 -16 87v2q0 95 68 153t177 58q149 0 260 -89 l-80 -116q-99 69 -182 69q-43 0 -67 -17t-23 -44v-2q0 -34 29 -51t122 -41q114 -31 168 -77t54 -133v-2q0 -101 -70 -159t-187 -58z"/>
<glyph glyph-name="scommaaccent" horiz-adv-x="502" unicode="ș" d="M181 -292l-8 46q40 4 59 22q17 16 17 44v6h-64v115h138v-97q1 -70 -35 -102t-107 -34zM256 -10q-127 0 -230 81l65 100q88 -64 169 -64q64 0 64 40v2q0 5 -2 10t-5 9q-5 4 -9 8t-12 6l-12 6q-6 2 -16 6t-17 6t-19 6t-19 5q-34 11 -58 21q-23 10 -49 28t-40 46t-13 66v2 q0 78 56 124t140 46q108 0 200 -62l-58 -105q-85 50 -145 50q-28 -1 -42 -11t-14 -26v-2q0 -27 92 -58q11 -4 17 -6q35 -12 59 -22t50 -30q26 -18 40 -45t13 -62v-2q-1 -85 -57 -129t-148 -44z"/>
<glyph glyph-name="schwa" horiz-adv-x="613" unicode="ə" d="M422 226h-229q7 -52 37 -83t76 -31t76 30t40 84zM291 548q122 0 201 -78t79 -199v-2q0 -117 -75 -198t-190 -81q-127 0 -194 84t-67 207q0 12 2 40h373q-11 51 -45 78t-86 27q-71 0 -130 -55l-87 77q81 100 219 100z"/>
<glyph glyph-name="circumflex" horiz-adv-x="500" unicode="ˆ" d="M55 595l123 157h144l123 -157h-117l-79 66l-79 -66h-115z"/>
<glyph glyph-name="caron" horiz-adv-x="500" unicode="ˇ" d="M445 752l-123 -157h-144l-123 157h117l79 -66l79 66h115z"/>
<glyph glyph-name="breve" horiz-adv-x="500" unicode="˘" d="M250 593q-80 0 -130 42t-58 117h102q20 -60 86 -60t86 60h102q-8 -75 -58 -117t-130 -42z"/>
<glyph glyph-name="dotaccent" horiz-adv-x="500" unicode="˙" d="M175 595v135h150v-135h-150z"/>
<glyph glyph-name="ring" horiz-adv-x="500" unicode="˚" d="M250 644q26 0 46 20t20 46t-20 46t-46 20t-46 -20t-20 -46t20 -46t46 -20zM250 593q-50 0 -86 34t-35 83q-1 49 35 83t86 34t86 -34t35 -83q1 -49 -35 -83t-86 -34z"/>
<glyph glyph-name="ogonek" horiz-adv-x="500" unicode="˛" d="M356 -97v-67q-24 -3 -45 -3q-63 1 -99 25t-35 62q0 40 42 90h101q-34 -35 -34 -66q0 -41 61 -41h9z"/>
<glyph glyph-name="tilde" horiz-adv-x="500" unicode="˜" d="M332 595q-36 0 -91 22q-43 17 -59 17q-22 0 -34 -12t-23 -37l-81 25q19 70 47 104t77 34q36 0 91 -22q43 -17 59 -17q22 -1 34 11t23 38l81 -25q-19 -69 -47 -103t-77 -35z"/>
<glyph glyph-name="hungarumlaut" horiz-adv-x="500" unicode="˝" d="M43 595l109 177l128 -57l-130 -120h-107zM228 595l111 177l128 -57l-132 -120h-107z"/>
<glyph glyph-name="commaaccent" horiz-adv-x="500" unicode="̦" d="M177 -292l-8 46q40 4 59 22q17 16 17 44v6h-64v115h138v-97q1 -70 -35 -102t-107 -34z"/>
<glyph glyph-name="Wgrave" horiz-adv-x="1122" unicode="Ẁ" d="M623 755h-116l-136 100l131 57zM269 -5l-239 705h165l145 -474l157 476h132l157 -476l145 474h161l-239 -705h-134l-158 458l-158 -458h-134z"/>
<glyph glyph-name="wgrave" horiz-adv-x="861" unicode="ẁ" d="M378 595l-130 120l131 57l111 -177h-112zM189 -4l-165 540h154l86 -325l101 327h131l102 -328l88 326h151l-167 -540h-137l-103 329l-105 -329h-136z"/>
<glyph glyph-name="Wacute" horiz-adv-x="1122" unicode="Ẃ" d="M499 755l121 157l131 -57l-136 -100h-116zM269 -5l-239 705h165l145 -474l157 476h132l157 -476l145 474h161l-239 -705h-134l-158 458l-158 -458h-134z"/>
<glyph glyph-name="wacute" horiz-adv-x="861" unicode="ẃ" d="M370 595l111 177l131 -57l-130 -120h-112zM189 -4l-165 540h154l86 -325l101 327h131l102 -328l88 326h151l-167 -540h-137l-103 329l-105 -329h-136z"/>
<glyph glyph-name="Wdieresis" horiz-adv-x="1122" unicode="Ẅ" d="M379 755v127h146v-127h-146zM597 755v127h146v-127h-146zM269 -5l-239 705h165l145 -474l157 476h132l157 -476l145 474h161l-239 -705h-134l-158 458l-158 -458h-134z"/>
<glyph glyph-name="wdieresis" horiz-adv-x="861" unicode="ẅ" d="M253 595v135h146v-135h-146zM461 595v135h146v-135h-146zM189 -4l-165 540h154l86 -325l101 327h131l102 -328l88 326h151l-167 -540h-137l-103 329l-105 -329h-136z"/>
<glyph glyph-name="Ygrave" horiz-adv-x="716" unicode="Ỳ" d="M420 755h-116l-136 100l131 57zM281 0v276l-269 424h180l167 -281l170 281h175l-269 -421v-279h-154z"/>
<glyph glyph-name="ygrave" horiz-adv-x="600" unicode="ỳ" d="M247 595l-130 120l131 57l111 -177h-112zM303 171l117 365h158l-206 -549q-31 -83 -70 -117t-106 -33q-72 0 -135 37l51 110q35 -21 65 -21q36 0 53 35l-210 538h161z"/>
<glyph glyph-name="endash" horiz-adv-x="528" unicode="–" d="M50 239v142h428v-142h-428z"/>
<glyph glyph-name="emdash" horiz-adv-x="898" unicode="—" d="M50 239v142h798v-142h-798z"/>
<glyph glyph-name="quoteleft" horiz-adv-x="286" unicode="‘" d="M57 383v135q1 96 47 140t138 47l13 -63q-99 -10 -99 -87q0 -6 1 -12h62v-160h-162z"/>
<glyph glyph-name="quoteright" horiz-adv-x="286" unicode="’" d="M44 378l-13 63q99 10 99 87q0 6 -1 12h-62v160h162v-135q-1 -97 -47 -141t-138 -46z"/>
<glyph glyph-name="quotesinglbase" horiz-adv-x="286" unicode="‚" d="M39 -162l-13 63q99 10 99 87q0 6 -1 12h-62v160h162v-135q0 -97 -46 -141t-139 -46z"/>
<glyph glyph-name="quotedblleft" horiz-adv-x="540" unicode="“" d="M57 383v135q1 96 47 140t138 47l13 -63q-99 -10 -99 -87q0 -6 1 -12h62v-160h-162zM311 383v135q1 96 47 140t138 47l13 -63q-99 -10 -99 -87q0 -6 1 -12h62v-160h-162z"/>
<glyph glyph-name="quotedblright" horiz-adv-x="540" unicode="”" d="M44 378l-13 63q99 10 99 87q0 6 -1 12h-62v160h162v-135q-1 -97 -47 -141t-138 -46zM298 378l-13 63q99 10 99 87q0 6 -1 12h-62v160h162v-135q-1 -97 -47 -141t-138 -46z"/>
<glyph glyph-name="quotedblbase" horiz-adv-x="540" unicode="„" d="M39 -162l-13 63q99 10 99 87q0 6 -1 12h-62v160h162v-135q0 -97 -46 -141t-139 -46zM293 -162l-13 63q99 10 99 87q0 6 -1 12h-62v160h162v-135q0 -97 -46 -141t-139 -46z"/>
<glyph glyph-name="bullet" horiz-adv-x="500" unicode="•" d="M250 203q-62 -1 -106 43t-43 105v2q-1 61 43 105t106 43q62 1 106 -43t43 -105v-2q1 -61 -43 -105t-106 -43z"/>
<glyph glyph-name="guilsinglleft" horiz-adv-x="373" unicode="‹" d="M219 42l-178 222v8l178 222l106 -52l-120 -173l120 -173z"/>
<glyph glyph-name="guilsinglright" horiz-adv-x="373" unicode="›" d="M154 42l-106 52l120 173l-120 173l106 54l178 -222v-8z"/>
<glyph glyph-name="fraction" horiz-adv-x="100" unicode="⁄" d="M-229 0l254 367l221 333h83l-254 -367l-221 -333h-83z"/>
<glyph glyph-name="zero.sup" horiz-adv-x="400" unicode="⁰" d="M199 738q-33 0 -53 -30t-20 -89v-8q0 -59 20 -89t54 -30q32 0 53 30t21 89v8q0 59 -22 89t-53 30zM199 410q-71 0 -117 55t-47 147v5q0 91 47 147t118 56q70 0 118 -56t47 -146v-5q0 -91 -48 -147t-118 -56z"/>
<glyph glyph-name="four.sup" horiz-adv-x="400" unicode="⁴" d="M235 568v152l-122 -152h122zM314 500v-82h-80v82h-188l-8 83l188 231h88v-245h52v-69h-52z"/>
<glyph glyph-name="five.sup" horiz-adv-x="400" unicode="⁵" d="M195 410q-81 0 -154 56l51 67q54 -42 105 -42q29 1 47 15t19 38q-1 24 -19 38t-50 14q-42 0 -72 -14l-55 33l16 195h248v-79h-176l-6 -70q24 8 64 8q61 1 99 -31t39 -90q-1 -62 -43 -100t-113 -38z"/>
<glyph glyph-name="six.sup" horiz-adv-x="400" unicode="⁶" d="M200 484q28 0 46 16t19 44t-17 44t-48 17q-66 0 -66 -61q0 -28 19 -44t47 -16zM202 410q-66 0 -106 40q-52 52 -52 153v2q0 101 44 158t130 57q66 0 117 -38l-41 -70q-37 29 -78 29q-32 0 -54 -24t-26 -64q36 21 82 21q56 0 94 -32t37 -93q1 -63 -41 -101t-106 -38z"/>
<glyph glyph-name="seven.sup" horiz-adv-x="400" unicode="⁷" d="M175 418h-98l166 311h-180v81h281v-68z"/>
<glyph glyph-name="eight.sup" horiz-adv-x="400" unicode="⁸" d="M200 585q-30 0 -50 -14t-19 -39q1 -24 19 -39t50 -15q31 0 49 14t18 40q0 25 -19 39t-48 14zM200 751q-28 0 -44 -14t-16 -35q0 -23 16 -37t44 -14q25 0 42 14t17 37q0 21 -17 35t-42 14zM200 410q-67 0 -109 32t-42 85q0 67 62 96q-52 30 -52 88q1 47 39 78t102 31 t102 -31t38 -78q0 -57 -52 -88q62 -33 62 -95q0 -54 -42 -86t-108 -32z"/>
<glyph glyph-name="nine.sup" horiz-adv-x="400" unicode="⁹" d="M200 621q30 1 48 17t18 46q0 26 -19 44t-47 18t-46 -18t-19 -44q0 -29 18 -46t47 -17zM198 820q66 0 106 -40q52 -52 52 -153v-2q0 -101 -44 -158t-130 -57q-69 0 -124 41l41 70q41 -32 85 -32q32 0 54 23t25 61q-36 -21 -79 -21q-56 0 -94 33t-39 94t41 101t106 40z"/>
<glyph glyph-name="zero.inf" horiz-adv-x="400" unicode="₀" d="M199 186q-33 0 -53 -30t-20 -89v-8q0 -59 20 -89t54 -30q32 0 53 30t21 89v8q0 59 -22 89t-53 30zM199 -142q-71 0 -117 55t-47 147v5q0 91 47 147t118 56q70 0 118 -56t47 -146v-5q0 -91 -48 -147t-118 -56z"/>
<glyph glyph-name="one.inf" horiz-adv-x="325" unicode="₁" d="M230 -132h-86v303l-75 -28l-25 72l122 48h64v-395z"/>
<glyph glyph-name="two.inf" horiz-adv-x="400" unicode="₂" d="M52 -132v75l133 108q39 30 53 49t14 41q0 21 -15 33t-38 13q-43 0 -85 -53l-62 51q32 43 66 63t86 20q63 0 101 -33t38 -86q-1 -40 -19 -69t-63 -65l-90 -71h174v-76h-293z"/>
<glyph glyph-name="three.inf" horiz-adv-x="400" unicode="₃" d="M196 -142q-87 0 -156 60l51 65q53 -46 106 -46q23 -1 41 13t18 35q0 48 -72 48h-47l-14 55l104 92h-160v78h270v-68l-111 -94q54 -4 86 -32t32 -76q0 -58 -40 -94t-108 -36z"/>
<glyph glyph-name="four.inf" horiz-adv-x="400" unicode="₄" d="M235 16v152l-122 -152h122zM314 -52v-82h-80v82h-188l-8 83l188 231h88v-245h52v-69h-52z"/>
<glyph glyph-name="five.inf" horiz-adv-x="400" unicode="₅" d="M195 -142q-81 0 -154 56l51 67q54 -42 105 -42q29 1 47 15t19 38q-1 24 -19 38t-50 14q-42 0 -72 -14l-55 33l16 195h248v-79h-176l-6 -70q24 8 64 8q61 1 99 -31t39 -90q-1 -62 -43 -100t-113 -38z"/>
<glyph glyph-name="six.inf" horiz-adv-x="400" unicode="₆" d="M200 -68q28 0 46 16t19 44t-17 44t-48 17q-66 0 -66 -61q0 -28 19 -44t47 -16zM202 -142q-66 0 -106 40q-52 52 -52 153v2q0 101 44 158t130 57q66 0 117 -38l-41 -70q-37 29 -78 29q-32 0 -54 -24t-26 -64q36 21 82 21q56 0 94 -32t37 -93q1 -63 -41 -101t-106 -38z"/>
<glyph glyph-name="seven.inf" horiz-adv-x="400" unicode="₇" d="M175 -134h-98l166 311h-180v81h281v-68z"/>
<glyph glyph-name="eight.inf" horiz-adv-x="400" unicode="₈" d="M200 33q-30 0 -50 -14t-19 -39q1 -24 19 -39t50 -15q31 0 49 14t18 40q0 25 -19 39t-48 14zM200 199q-28 0 -44 -14t-16 -35q0 -23 16 -37t44 -14q25 0 42 14t17 37q0 21 -17 35t-42 14zM200 -142q-67 0 -109 32t-42 85q0 67 62 96q-52 30 -52 88q1 47 39 78t102 31 t102 -31t38 -78q0 -57 -52 -88q62 -33 62 -95q0 -54 -42 -86t-108 -32z"/>
<glyph glyph-name="nine.inf" horiz-adv-x="400" unicode="₉" d="M200 69q30 1 48 17t18 46q0 26 -19 44t-47 18t-46 -18t-19 -44q0 -29 18 -46t47 -17zM198 268q66 0 106 -40q52 -52 52 -153v-2q0 -101 -44 -158t-130 -57q-69 0 -124 41l41 70q41 -32 85 -32q32 0 54 23t25 61q-36 -21 -79 -21q-56 0 -94 33t-39 94t41 101t106 40z"/>
<glyph glyph-name="colonmonetary" horiz-adv-x="620" unicode="₡" d="M180 341q0 -114 58 -169l47 384q-105 -52 -105 -206v-9zM296 137q30 -11 74 -11l54 438q-30 10 -58 10q-11 0 -16 -1zM448 780h69l-13 -104q41 -16 81 -47l-54 -131q-23 20 -48 36l-49 -397q35 15 81 57l74 -100q-79 -74 -168 -90l-15 -122h-69l14 118q-33 0 -68 8 l-15 -126h-69l18 150q-81 38 -129 120t-48 193v9q0 136 72 227t187 113l11 86h69l-10 -80q37 0 68 -6z"/>
<glyph glyph-name="naira" horiz-adv-x="840" unicode="₦" d="M564 243h5v175h-111zM271 473v-187h118l-113 187h-5zM814 198h-103v-198h-151l-122 198h-164v-198h-145v198h-103v92h103v124h-103v92h103v194h162l118 -194h157v194h145v-194h103v-92h-103v-124h103v-92z"/>
<glyph glyph-name="rupee" horiz-adv-x="1110" unicode="₨" d="M219 358h111q50 0 80 27t30 76v4q0 103 -113 103h-108v-210zM874 -10q-123 0 -226 73l60 99q87 -59 169 -59q29 -1 47 11t18 31v2q0 21 -19 33t-84 33q-86 27 -126 63t-40 99v2q0 77 55 121t140 45q102 0 189 -55l-52 -104q-78 46 -140 46q-29 0 -46 -11t-17 -28v-2 q0 -19 20 -33t83 -35q87 -29 127 -64t39 -98v-2q0 -79 -56 -123t-141 -44zM75 0v700h261q116 0 183 -60t67 -169v-4q0 -150 -130 -207l148 -260h-165l-128 230h-92v-230h-144z"/>
<glyph glyph-name="won" horiz-adv-x="1120" unicode="₩" d="M341 171h6l57 233h-111zM777 171h6l47 233h-110zM557 523l-56 -228h118l-56 228h-6zM1050 700l-53 -204h92v-97h-118l-25 -99h143v-97h-169l-53 -205h-174l-54 205h-158l-54 -205h-174l-54 205h-168v97h143l-26 99h-117v97h92l-53 204h165l43 -204h145l53 206h172 l52 -206h145l44 204h161z"/>
<glyph glyph-name="sheqel" horiz-adv-x="630" unicode="₪" d="M338 338q0 75 -75 75h-94v-413h-113v536h231q59 0 93 -34t33 -92v-196h-75v124zM231 139l-26 183h75l19 -125q11 -74 89 -74h73v413h113v-536h-187q-70 0 -108 34t-48 105z"/>
<glyph glyph-name="Euro" horiz-adv-x="720" unicode="€" d="M680 584l-116 -88q-30 40 -60 60t-73 19q-87 0 -127 -88h184v-101h-208q-1 -11 -1 -35q0 -23 1 -33h208v-101h-186q41 -92 135 -92q41 0 70 19t65 63l110 -81q-48 -66 -106 -102t-139 -36q-112 0 -189 62t-107 167h-92v101h75q-1 10 -1 31q0 25 1 37h-75v101h94 q31 101 107 163t184 62q86 0 144 -33t102 -95z"/>
<glyph glyph-name="peso" horiz-adv-x="763" unicode="₱" d="M279 569v-83h216q-23 83 -127 83h-89zM371 319q50 1 83 25t43 65h-218v-90h92zM129 0v404h-103v87h103v209h256q111 0 181 -58t84 -151h96v-87h-96q-14 -100 -92 -157t-188 -57h-87v-190h-154z"/>
</font>
</defs>
</svg>
